<?xml version="1.0" encoding="utf-8" standalone="no"?>
<!DOCTYPE svg PUBLIC "-//W3C//DTD SVG 1.1//EN"
  "http://www.w3.org/Graphics/SVG/1.1/DTD/svg11.dtd">
<svg xmlns:xlink="http://www.w3.org/1999/xlink" width="255.11811pt" height="340.15748pt" viewBox="0 0 255.11811 340.15748" xmlns="http://www.w3.org/2000/svg" version="1.1">
 <metadata>
  <rdf:RDF xmlns:dc="http://purl.org/dc/elements/1.1/" xmlns:cc="http://creativecommons.org/ns#" xmlns:rdf="http://www.w3.org/1999/02/22-rdf-syntax-ns#">
   <cc:Work>
    <dc:type rdf:resource="http://purl.org/dc/dcmitype/StillImage"/>
    <dc:date>2024-06-04T20:24:45.648831</dc:date>
    <dc:format>image/svg+xml</dc:format>
    <dc:creator>
     <cc:Agent>
      <dc:title>Matplotlib v3.5.3, https://matplotlib.org/</dc:title>
     </cc:Agent>
    </dc:creator>
   </cc:Work>
  </rdf:RDF>
 </metadata>
 <defs>
  <style type="text/css">*{stroke-linejoin: round; stroke-linecap: butt}</style>
 </defs>
 <g id="figure_1">
  <g id="patch_1">
   <path d="M 0 340.15748 
L 255.11811 340.15748 
L 255.11811 0 
L 0 0 
z
" style="fill: #ffffff"/>
  </g>
  <g id="axes_1">
   <g id="patch_2">
    <path d="M 31.889764 302.740157 
L 229.606299 302.740157 
L 229.606299 40.818898 
L 31.889764 40.818898 
z
" style="fill: #ffffff"/>
   </g>
   <g id="PathCollection_1">
    <defs>
     <path id="C0_0_a06af0d540" d="M 0 2.738613 
C 0.726289 2.738613 1.422928 2.450055 1.936492 1.936492 
C 2.450055 1.422928 2.738613 0.726289 2.738613 -0 
C 2.738613 -0.726289 2.450055 -1.422928 1.936492 -1.936492 
C 1.422928 -2.450055 0.726289 -2.738613 0 -2.738613 
C -0.726289 -2.738613 -1.422928 -2.450055 -1.936492 -1.936492 
C -2.450055 -1.422928 -2.738613 -0.726289 -2.738613 0 
C -2.738613 0.726289 -2.450055 1.422928 -1.936492 1.936492 
C -1.422928 2.450055 -0.726289 2.738613 0 2.738613 
z
"/>
    </defs>
    <g clip-path="url(#p5cf6c3453b)">
     <use xlink:href="#C0_0_a06af0d540" x="85.879886" y="241.613138" style="fill: none; stroke: #0000ff"/>
    </g>
    <g clip-path="url(#p5cf6c3453b)">
     <use xlink:href="#C0_0_a06af0d540" x="37.970893" y="288.698696" style="fill: none; stroke: #0000ff"/>
    </g>
    <g clip-path="url(#p5cf6c3453b)">
     <use xlink:href="#C0_0_a06af0d540" x="89.671662" y="248.835197" style="fill: none; stroke: #0000ff"/>
    </g>
    <g clip-path="url(#p5cf6c3453b)">
     <use xlink:href="#C0_0_a06af0d540" x="84.906298" y="245.951254" style="fill: none; stroke: #0000ff"/>
    </g>
    <g clip-path="url(#p5cf6c3453b)">
     <use xlink:href="#C0_0_a06af0d540" x="85.804952" y="245.200287" style="fill: none; stroke: #0000ff"/>
    </g>
   </g>
   <g id="PathCollection_2">
    <defs>
     <path id="C1_0_60035d1440" d="M 0 2.738613 
C 0.726289 2.738613 1.422928 2.450055 1.936492 1.936492 
C 2.450055 1.422928 2.738613 0.726289 2.738613 -0 
C 2.738613 -0.726289 2.450055 -1.422928 1.936492 -1.936492 
C 1.422928 -2.450055 0.726289 -2.738613 0 -2.738613 
C -0.726289 -2.738613 -1.422928 -2.450055 -1.936492 -1.936492 
C -2.450055 -1.422928 -2.738613 -0.726289 -2.738613 0 
C -2.738613 0.726289 -2.450055 1.422928 -1.936492 1.936492 
C -1.422928 2.450055 -0.726289 2.738613 0 2.738613 
z
"/>
    </defs>
    <g clip-path="url(#p5cf6c3453b)">
     <use xlink:href="#C1_0_60035d1440" x="103.89685" y="201.769512" style="fill: none; stroke: #add8e6"/>
    </g>
    <g clip-path="url(#p5cf6c3453b)">
     <use xlink:href="#C1_0_60035d1440" x="101.026772" y="207.59726" style="fill: none; stroke: #add8e6"/>
    </g>
    <g clip-path="url(#p5cf6c3453b)">
     <use xlink:href="#C1_0_60035d1440" x="101.154331" y="206.746016" style="fill: none; stroke: #add8e6"/>
    </g>
    <g clip-path="url(#p5cf6c3453b)">
     <use xlink:href="#C1_0_60035d1440" x="101.473228" y="205.56737" style="fill: none; stroke: #add8e6"/>
    </g>
    <g clip-path="url(#p5cf6c3453b)">
     <use xlink:href="#C1_0_60035d1440" x="104.598425" y="201.965953" style="fill: none; stroke: #add8e6"/>
    </g>
    <g clip-path="url(#p5cf6c3453b)">
     <use xlink:href="#C1_0_60035d1440" x="104.215748" y="199.870583" style="fill: none; stroke: #add8e6"/>
    </g>
    <g clip-path="url(#p5cf6c3453b)">
     <use xlink:href="#C1_0_60035d1440" x="99.240945" y="208.252063" style="fill: none; stroke: #add8e6"/>
    </g>
    <g clip-path="url(#p5cf6c3453b)">
     <use xlink:href="#C1_0_60035d1440" x="103.89685" y="200.590866" style="fill: none; stroke: #add8e6"/>
    </g>
    <g clip-path="url(#p5cf6c3453b)">
     <use xlink:href="#C1_0_60035d1440" x="101.21811" y="205.174488" style="fill: none; stroke: #add8e6"/>
    </g>
    <g clip-path="url(#p5cf6c3453b)">
     <use xlink:href="#C1_0_60035d1440" x="105.172441" y="199.870583" style="fill: none; stroke: #add8e6"/>
    </g>
    <g clip-path="url(#p5cf6c3453b)">
     <use xlink:href="#C1_0_60035d1440" x="101.090551" y="206.484094" style="fill: none; stroke: #add8e6"/>
    </g>
    <g clip-path="url(#p5cf6c3453b)">
     <use xlink:href="#C1_0_60035d1440" x="100.197638" y="206.484094" style="fill: none; stroke: #add8e6"/>
    </g>
    <g clip-path="url(#p5cf6c3453b)">
     <use xlink:href="#C1_0_60035d1440" x="99.94252" y="208.121102" style="fill: none; stroke: #add8e6"/>
    </g>
    <g clip-path="url(#p5cf6c3453b)">
     <use xlink:href="#C1_0_60035d1440" x="101.600787" y="206.091213" style="fill: none; stroke: #add8e6"/>
    </g>
    <g clip-path="url(#p5cf6c3453b)">
     <use xlink:href="#C1_0_60035d1440" x="102.748819" y="204.650646" style="fill: none; stroke: #add8e6"/>
    </g>
    <g clip-path="url(#p5cf6c3453b)">
     <use xlink:href="#C1_0_60035d1440" x="101.154331" y="204.781606" style="fill: none; stroke: #add8e6"/>
    </g>
   </g>
   <g id="PathCollection_3">
    <defs>
     <path id="C2_0_293c18044f" d="M 0 2.738613 
C 0.726289 2.738613 1.422928 2.450055 1.936492 1.936492 
C 2.450055 1.422928 2.738613 0.726289 2.738613 -0 
C 2.738613 -0.726289 2.450055 -1.422928 1.936492 -1.936492 
C 1.422928 -2.450055 0.726289 -2.738613 0 -2.738613 
C -0.726289 -2.738613 -1.422928 -2.450055 -1.936492 -1.936492 
C -2.450055 -1.422928 -2.738613 -0.726289 -2.738613 0 
C -2.738613 0.726289 -2.450055 1.422928 -1.936492 1.936492 
C -1.422928 2.450055 -0.726289 2.738613 0 2.738613 
z
"/>
    </defs>
    <g clip-path="url(#p5cf6c3453b)">
     <use xlink:href="#C2_0_293c18044f" x="99.751181" y="208.644945" style="fill: none; stroke: #ffa07a"/>
    </g>
    <g clip-path="url(#p5cf6c3453b)">
     <use xlink:href="#C2_0_293c18044f" x="100.771654" y="205.960252" style="fill: none; stroke: #ffa07a"/>
    </g>
    <g clip-path="url(#p5cf6c3453b)">
     <use xlink:href="#C2_0_293c18044f" x="101.792126" y="205.043528" style="fill: none; stroke: #ffa07a"/>
    </g>
    <g clip-path="url(#p5cf6c3453b)">
     <use xlink:href="#C2_0_293c18044f" x="99.94252" y="207.53178" style="fill: none; stroke: #ffa07a"/>
    </g>
    <g clip-path="url(#p5cf6c3453b)">
     <use xlink:href="#C2_0_293c18044f" x="100.133858" y="204.781606" style="fill: none; stroke: #ffa07a"/>
    </g>
    <g clip-path="url(#p5cf6c3453b)">
     <use xlink:href="#C2_0_293c18044f" x="99.814961" y="207.466299" style="fill: none; stroke: #ffa07a"/>
    </g>
    <g clip-path="url(#p5cf6c3453b)">
     <use xlink:href="#C2_0_293c18044f" x="101.409449" y="205.829291" style="fill: none; stroke: #ffa07a"/>
    </g>
    <g clip-path="url(#p5cf6c3453b)">
     <use xlink:href="#C2_0_293c18044f" x="100.388976" y="207.073417" style="fill: none; stroke: #ffa07a"/>
    </g>
    <g clip-path="url(#p5cf6c3453b)">
     <use xlink:href="#C2_0_293c18044f" x="99.94252" y="207.400819" style="fill: none; stroke: #ffa07a"/>
    </g>
    <g clip-path="url(#p5cf6c3453b)">
     <use xlink:href="#C2_0_293c18044f" x="99.368504" y="208.448504" style="fill: none; stroke: #ffa07a"/>
    </g>
    <g clip-path="url(#p5cf6c3453b)">
     <use xlink:href="#C2_0_293c18044f" x="100.133858" y="207.859181" style="fill: none; stroke: #ffa07a"/>
    </g>
    <g clip-path="url(#p5cf6c3453b)">
     <use xlink:href="#C2_0_293c18044f" x="101.154331" y="206.222173" style="fill: none; stroke: #ffa07a"/>
    </g>
    <g clip-path="url(#p5cf6c3453b)">
     <use xlink:href="#C2_0_293c18044f" x="100.707874" y="207.138898" style="fill: none; stroke: #ffa07a"/>
    </g>
    <g clip-path="url(#p5cf6c3453b)">
     <use xlink:href="#C2_0_293c18044f" x="100.580315" y="205.763811" style="fill: none; stroke: #ffa07a"/>
    </g>
   </g>
   <g id="PathCollection_4">
    <defs>
     <path id="C3_0_d0f7b119ca" d="M 0 2.738613 
C 0.726289 2.738613 1.422928 2.450055 1.936492 1.936492 
C 2.450055 1.422928 2.738613 0.726289 2.738613 -0 
C 2.738613 -0.726289 2.450055 -1.422928 1.936492 -1.936492 
C 1.422928 -2.450055 0.726289 -2.738613 0 -2.738613 
C -0.726289 -2.738613 -1.422928 -2.450055 -1.936492 -1.936492 
C -2.450055 -1.422928 -2.738613 -0.726289 -2.738613 0 
C -2.738613 0.726289 -2.450055 1.422928 -1.936492 1.936492 
C -1.422928 2.450055 -0.726289 2.738613 0 2.738613 
z
"/>
    </defs>
    <g clip-path="url(#p5cf6c3453b)">
     <use xlink:href="#C3_0_d0f7b119ca" x="132.023622" y="164.576693" style="fill: none; stroke: #ff0000"/>
    </g>
    <g clip-path="url(#p5cf6c3453b)">
     <use xlink:href="#C3_0_d0f7b119ca" x="128.19685" y="163.136126" style="fill: none; stroke: #ff0000"/>
    </g>
    <g clip-path="url(#p5cf6c3453b)">
     <use xlink:href="#C3_0_d0f7b119ca" x="114.80315" y="189.459213" style="fill: none; stroke: #ff0000"/>
    </g>
    <g clip-path="url(#p5cf6c3453b)">
     <use xlink:href="#C3_0_d0f7b119ca" x="121.181102" y="177.672756" style="fill: none; stroke: #ff0000"/>
    </g>
   </g>
   <g id="PathCollection_5">
    <defs>
     <path id="C4_0_24cd64bdce" d="M 0 2.738613 
C 0.726289 2.738613 1.422928 2.450055 1.936492 1.936492 
C 2.450055 1.422928 2.738613 0.726289 2.738613 -0 
C 2.738613 -0.726289 2.450055 -1.422928 1.936492 -1.936492 
C 1.422928 -2.450055 0.726289 -2.738613 0 -2.738613 
C -0.726289 -2.738613 -1.422928 -2.450055 -1.936492 -1.936492 
C -2.450055 -1.422928 -2.738613 -0.726289 -2.738613 0 
C -2.738613 0.726289 -2.450055 1.422928 -1.936492 1.936492 
C -1.422928 2.450055 -0.726289 2.738613 0 2.738613 
z
"/>
    </defs>
    <g clip-path="url(#p5cf6c3453b)">
     <use xlink:href="#C4_0_24cd64bdce" x="198.518244" y="75.262853" style="fill: none; stroke: #8b0000"/>
    </g>
    <g clip-path="url(#p5cf6c3453b)">
     <use xlink:href="#C4_0_24cd64bdce" x="231.128079" y="27.162978" style="fill: none; stroke: #8b0000"/>
    </g>
    <g clip-path="url(#p5cf6c3453b)">
     <use xlink:href="#C4_0_24cd64bdce" x="173.148661" y="118.572843" style="fill: none; stroke: #8b0000"/>
    </g>
    <g clip-path="url(#p5cf6c3453b)">
     <use xlink:href="#C4_0_24cd64bdce" x="189.437315" y="97.306801" style="fill: none; stroke: #8b0000"/>
    </g>
    <g clip-path="url(#p5cf6c3453b)">
     <use xlink:href="#C4_0_24cd64bdce" x="162.016391" y="129.121722" style="fill: none; stroke: #8b0000"/>
    </g>
    <g clip-path="url(#p5cf6c3453b)">
     <use xlink:href="#C4_0_24cd64bdce" x="157.807198" y="129.933023" style="fill: none; stroke: #8b0000"/>
    </g>
   </g>
   <g id="PathCollection_6">
    <defs>
     <path id="C5_0_3da9377895" d="M 0 2.738613 
C 0.726289 2.738613 1.422928 2.450055 1.936492 1.936492 
C 2.450055 1.422928 2.738613 0.726289 2.738613 -0 
C 2.738613 -0.726289 2.450055 -1.422928 1.936492 -1.936492 
C 1.422928 -2.450055 0.726289 -2.738613 0 -2.738613 
C -0.726289 -2.738613 -1.422928 -2.450055 -1.936492 -1.936492 
C -2.450055 -1.422928 -2.738613 -0.726289 -2.738613 0 
C -2.738613 0.726289 -2.450055 1.422928 -1.936492 1.936492 
C -1.422928 2.450055 -0.726289 2.738613 0 2.738613 
z
"/>
    </defs>
    <g clip-path="url(#p5cf6c3453b)">
     <use xlink:href="#C5_0_3da9377895" x="125.326772" y="166.933984" style="fill: none; stroke: #32cd32"/>
    </g>
    <g clip-path="url(#p5cf6c3453b)">
     <use xlink:href="#C5_0_3da9377895" x="130.301575" y="163.267087" style="fill: none; stroke: #32cd32"/>
    </g>
    <g clip-path="url(#p5cf6c3453b)">
     <use xlink:href="#C5_0_3da9377895" x="132.470079" y="157.963181" style="fill: none; stroke: #32cd32"/>
    </g>
    <g clip-path="url(#p5cf6c3453b)">
     <use xlink:href="#C5_0_3da9377895" x="129.472441" y="160.124031" style="fill: none; stroke: #32cd32"/>
    </g>
    <g clip-path="url(#p5cf6c3453b)">
     <use xlink:href="#C5_0_3da9377895" x="105.810236" y="197.709732" style="fill: none; stroke: #32cd32"/>
    </g>
    <g clip-path="url(#p5cf6c3453b)">
     <use xlink:href="#C5_0_3da9377895" x="119.140157" y="179.178803" style="fill: none; stroke: #32cd32"/>
    </g>
    <g clip-path="url(#p5cf6c3453b)">
     <use xlink:href="#C5_0_3da9377895" x="132.214961" y="155.540409" style="fill: none; stroke: #32cd32"/>
    </g>
    <g clip-path="url(#p5cf6c3453b)">
     <use xlink:href="#C5_0_3da9377895" x="121.244882" y="173.089134" style="fill: none; stroke: #32cd32"/>
    </g>
    <g clip-path="url(#p5cf6c3453b)">
     <use xlink:href="#C5_0_3da9377895" x="127.559055" y="162.546803" style="fill: none; stroke: #32cd32"/>
    </g>
    <g clip-path="url(#p5cf6c3453b)">
     <use xlink:href="#C5_0_3da9377895" x="122.966929" y="175.577386" style="fill: none; stroke: #32cd32"/>
    </g>
    <g clip-path="url(#p5cf6c3453b)">
     <use xlink:href="#C5_0_3da9377895" x="134.95748" y="152.593795" style="fill: none; stroke: #32cd32"/>
    </g>
    <g clip-path="url(#p5cf6c3453b)">
     <use xlink:href="#C5_0_3da9377895" x="119.012598" y="172.892693" style="fill: none; stroke: #32cd32"/>
    </g>
   </g>
   <g id="PathCollection_7">
    <defs>
     <path id="C6_0_4dd165570d" d="M 0 2.738613 
C 0.726289 2.738613 1.422928 2.450055 1.936492 1.936492 
C 2.450055 1.422928 2.738613 0.726289 2.738613 -0 
C 2.738613 -0.726289 2.450055 -1.422928 1.936492 -1.936492 
C 1.422928 -2.450055 0.726289 -2.738613 0 -2.738613 
C -0.726289 -2.738613 -1.422928 -2.450055 -1.936492 -1.936492 
C -2.450055 -1.422928 -2.738613 -0.726289 -2.738613 0 
C -2.738613 0.726289 -2.450055 1.422928 -1.936492 1.936492 
C -1.422928 2.450055 -0.726289 2.738613 0 2.738613 
z
"/>
    </defs>
    <g clip-path="url(#p5cf6c3453b)">
     <use xlink:href="#C6_0_4dd165570d" x="132.788976" y="157.963181" style="fill: none; stroke: #ee82ee"/>
    </g>
    <g clip-path="url(#p5cf6c3453b)">
     <use xlink:href="#C6_0_4dd165570d" x="143.440157" y="145.914803" style="fill: none; stroke: #ee82ee"/>
    </g>
    <g clip-path="url(#p5cf6c3453b)">
     <use xlink:href="#C6_0_4dd165570d" x="140.059843" y="148.337575" style="fill: none; stroke: #ee82ee"/>
    </g>
    <g clip-path="url(#p5cf6c3453b)">
     <use xlink:href="#C6_0_4dd165570d" x="130.748031" y="160.189512" style="fill: none; stroke: #ee82ee"/>
    </g>
    <g clip-path="url(#p5cf6c3453b)">
     <use xlink:href="#C6_0_4dd165570d" x="125.58189" y="168.636472" style="fill: none; stroke: #ee82ee"/>
    </g>
    <g clip-path="url(#p5cf6c3453b)">
     <use xlink:href="#C6_0_4dd165570d" x="122.201575" y="175.053543" style="fill: none; stroke: #ee82ee"/>
    </g>
    <g clip-path="url(#p5cf6c3453b)">
     <use xlink:href="#C6_0_4dd165570d" x="155.685827" y="123.520535" style="fill: none; stroke: #ee82ee"/>
    </g>
    <g clip-path="url(#p5cf6c3453b)">
     <use xlink:href="#C6_0_4dd165570d" x="124.625197" y="168.767433" style="fill: none; stroke: #ee82ee"/>
    </g>
    <g clip-path="url(#p5cf6c3453b)">
     <use xlink:href="#C6_0_4dd165570d" x="129.472441" y="161.040756" style="fill: none; stroke: #ee82ee"/>
    </g>
    <g clip-path="url(#p5cf6c3453b)">
     <use xlink:href="#C6_0_4dd165570d" x="130.365354" y="166.606583" style="fill: none; stroke: #ee82ee"/>
    </g>
    <g clip-path="url(#p5cf6c3453b)">
     <use xlink:href="#C6_0_4dd165570d" x="140.952756" y="145.063559" style="fill: none; stroke: #ee82ee"/>
    </g>
    <g clip-path="url(#p5cf6c3453b)">
     <use xlink:href="#C6_0_4dd165570d" x="139.868504" y="148.337575" style="fill: none; stroke: #ee82ee"/>
    </g>
   </g>
   <g id="PathCollection_8">
    <defs>
     <path id="m4f748b0d8a" d="M -2.738613 2.738613 
L 2.738613 -2.738613 
M -2.738613 -2.738613 
L 2.738613 2.738613 
" style="stroke: #ffa07a"/>
    </defs>
    <g clip-path="url(#p5cf6c3453b)">
     <use xlink:href="#m4f748b0d8a" x="101.28189" y="205.63285" style="fill: #ffa07a; stroke: #ffa07a"/>
     <use xlink:href="#m4f748b0d8a" x="100.771654" y="207.204378" style="fill: #ffa07a; stroke: #ffa07a"/>
     <use xlink:href="#m4f748b0d8a" x="103.131496" y="203.144598" style="fill: #ffa07a; stroke: #ffa07a"/>
     <use xlink:href="#m4f748b0d8a" x="102.174803" y="204.519685" style="fill: #ffa07a; stroke: #ffa07a"/>
     <use xlink:href="#m4f748b0d8a" x="101.983465" y="204.454205" style="fill: #ffa07a; stroke: #ffa07a"/>
     <use xlink:href="#m4f748b0d8a" x="101.473228" y="205.436409" style="fill: #ffa07a; stroke: #ffa07a"/>
     <use xlink:href="#m4f748b0d8a" x="97.710236" y="210.085512" style="fill: #ffa07a; stroke: #ffa07a"/>
     <use xlink:href="#m4f748b0d8a" x="101.28189" y="206.222173" style="fill: #ffa07a; stroke: #ffa07a"/>
     <use xlink:href="#m4f748b0d8a" x="101.600787" y="205.698331" style="fill: #ffa07a; stroke: #ffa07a"/>
     <use xlink:href="#m4f748b0d8a" x="103.322835" y="202.882677" style="fill: #ffa07a; stroke: #ffa07a"/>
     <use xlink:href="#m4f748b0d8a" x="103.322835" y="202.293354" style="fill: #ffa07a; stroke: #ffa07a"/>
     <use xlink:href="#m4f748b0d8a" x="101.409449" y="204.912567" style="fill: #ffa07a; stroke: #ffa07a"/>
     <use xlink:href="#m4f748b0d8a" x="100.899213" y="207.269858" style="fill: #ffa07a; stroke: #ffa07a"/>
     <use xlink:href="#m4f748b0d8a" x="100.707874" y="206.615055" style="fill: #ffa07a; stroke: #ffa07a"/>
     <use xlink:href="#m4f748b0d8a" x="101.983465" y="204.912567" style="fill: #ffa07a; stroke: #ffa07a"/>
    </g>
   </g>
   <g id="PathCollection_9">
    <defs>
     <path id="medbfe5fe60" d="M -2.738613 2.738613 
L 2.738613 -2.738613 
M -2.738613 -2.738613 
L 2.738613 2.738613 
" style="stroke: #0000ff"/>
    </defs>
    <g clip-path="url(#p5cf6c3453b)">
     <use xlink:href="#medbfe5fe60" x="69.308658" y="271.017335" style="fill: #0000ff; stroke: #0000ff"/>
     <use xlink:href="#medbfe5fe60" x="80.795899" y="254.787738" style="fill: #0000ff; stroke: #0000ff"/>
    </g>
   </g>
   <g id="PathCollection_10">
    <defs>
     <path id="m24f7c608c4" d="M -2.738613 2.738613 
L 2.738613 -2.738613 
M -2.738613 -2.738613 
L 2.738613 2.738613 
" style="stroke: #32cd32"/>
    </defs>
    <g clip-path="url(#p5cf6c3453b)">
     <use xlink:href="#m24f7c608c4" x="122.392913" y="172.630772" style="fill: #32cd32; stroke: #32cd32"/>
     <use xlink:href="#m24f7c608c4" x="125.964567" y="168.243591" style="fill: #32cd32; stroke: #32cd32"/>
     <use xlink:href="#m24f7c608c4" x="125.007874" y="170.797323" style="fill: #32cd32; stroke: #32cd32"/>
     <use xlink:href="#m24f7c608c4" x="122.648031" y="172.761732" style="fill: #32cd32; stroke: #32cd32"/>
     <use xlink:href="#m24f7c608c4" x="119.905512" y="177.410835" style="fill: #32cd32; stroke: #32cd32"/>
     <use xlink:href="#m24f7c608c4" x="124.944094" y="172.36885" style="fill: #32cd32; stroke: #32cd32"/>
     <use xlink:href="#m24f7c608c4" x="126.85748" y="169.880598" style="fill: #32cd32; stroke: #32cd32"/>
     <use xlink:href="#m24f7c608c4" x="118.374803" y="177.803717" style="fill: #32cd32; stroke: #32cd32"/>
     <use xlink:href="#m24f7c608c4" x="126.666142" y="161.630079" style="fill: #32cd32; stroke: #32cd32"/>
     <use xlink:href="#m24f7c608c4" x="126.028346" y="167.195906" style="fill: #32cd32; stroke: #32cd32"/>
     <use xlink:href="#m24f7c608c4" x="126.92126" y="165.166016" style="fill: #32cd32; stroke: #32cd32"/>
     <use xlink:href="#m24f7c608c4" x="124.561417" y="166.475622" style="fill: #32cd32; stroke: #32cd32"/>
     <use xlink:href="#m24f7c608c4" x="121.5" y="175.511906" style="fill: #32cd32; stroke: #32cd32"/>
    </g>
   </g>
   <g id="PathCollection_11">
    <defs>
     <path id="m8951a61c5f" d="M -2.738613 2.738613 
L 2.738613 -2.738613 
M -2.738613 -2.738613 
L 2.738613 2.738613 
" style="stroke: #ee82ee"/>
    </defs>
    <g clip-path="url(#p5cf6c3453b)">
     <use xlink:href="#m8951a61c5f" x="129.408661" y="163.070646" style="fill: #ee82ee; stroke: #ee82ee"/>
     <use xlink:href="#m8951a61c5f" x="129.727559" y="164.511213" style="fill: #ee82ee; stroke: #ee82ee"/>
     <use xlink:href="#m8951a61c5f" x="131.640945" y="161.82652" style="fill: #ee82ee; stroke: #ee82ee"/>
     <use xlink:href="#m8951a61c5f" x="134.447244" y="157.308378" style="fill: #ee82ee; stroke: #ee82ee"/>
     <use xlink:href="#m8951a61c5f" x="134.447244" y="158.356063" style="fill: #ee82ee; stroke: #ee82ee"/>
     <use xlink:href="#m8951a61c5f" x="136.998425" y="158.617984" style="fill: #ee82ee; stroke: #ee82ee"/>
     <use xlink:href="#m8951a61c5f" x="120.670866" y="174.071339" style="fill: #ee82ee; stroke: #ee82ee"/>
     <use xlink:href="#m8951a61c5f" x="135.786614" y="147.944693" style="fill: #ee82ee; stroke: #ee82ee"/>
     <use xlink:href="#m8951a61c5f" x="136.807087" y="153.314079" style="fill: #ee82ee; stroke: #ee82ee"/>
     <use xlink:href="#m8951a61c5f" x="137.76378" y="150.105543" style="fill: #ee82ee; stroke: #ee82ee"/>
     <use xlink:href="#m8951a61c5f" x="133.299213" y="153.51052" style="fill: #ee82ee; stroke: #ee82ee"/>
     <use xlink:href="#m8951a61c5f" x="127.303937" y="168.17811" style="fill: #ee82ee; stroke: #ee82ee"/>
    </g>
   </g>
   <g id="PathCollection_12">
    <defs>
     <path id="m626868539c" d="M -2.738613 0 
L 2.738613 0 
M 0 2.738613 
L 0 -2.738613 
" style="stroke: #0000ff"/>
    </defs>
    <g clip-path="url(#p5cf6c3453b)">
     <use xlink:href="#m626868539c" x="85.475818" y="242.33033" style="fill: #0000ff; stroke: #0000ff"/>
     <use xlink:href="#m626868539c" x="74.642367" y="248.689923" style="fill: #0000ff; stroke: #0000ff"/>
     <use xlink:href="#m626868539c" x="66.722283" y="261.944049" style="fill: #0000ff; stroke: #0000ff"/>
     <use xlink:href="#m626868539c" x="71.035303" y="261.99181" style="fill: #0000ff; stroke: #0000ff"/>
     <use xlink:href="#m626868539c" x="76.056423" y="263.303295" style="fill: #0000ff; stroke: #0000ff"/>
     <use xlink:href="#m626868539c" x="85.204876" y="234.450233" style="fill: #0000ff; stroke: #0000ff"/>
     <use xlink:href="#m626868539c" x="85.14065" y="235.226574" style="fill: #0000ff; stroke: #0000ff"/>
    </g>
   </g>
   <g id="PathCollection_13">
    <defs>
     <path id="m6c4538b153" d="M -2.738613 0 
L 2.738613 0 
M 0 2.738613 
L 0 -2.738613 
" style="stroke: #add8e6"/>
    </defs>
    <g clip-path="url(#p5cf6c3453b)">
     <use xlink:href="#m6c4538b153" x="100.771654" y="206.811496" style="fill: #add8e6; stroke: #add8e6"/>
    </g>
   </g>
   <g id="PathCollection_14">
    <defs>
     <path id="mb499501cfb" d="M -2.738613 0 
L 2.738613 0 
M 0 2.738613 
L 0 -2.738613 
" style="stroke: #ffa07a"/>
    </defs>
    <g clip-path="url(#p5cf6c3453b)">
     <use xlink:href="#mb499501cfb" x="100.133858" y="207.793701" style="fill: #ffa07a; stroke: #ffa07a"/>
     <use xlink:href="#mb499501cfb" x="101.21811" y="206.091213" style="fill: #ffa07a; stroke: #ffa07a"/>
    </g>
   </g>
   <g id="PathCollection_15">
    <defs>
     <path id="m5c61989050" d="M -2.738613 0 
L 2.738613 0 
M 0 2.738613 
L 0 -2.738613 
" style="stroke: #ff0000"/>
    </defs>
    <g clip-path="url(#p5cf6c3453b)">
     <use xlink:href="#m5c61989050" x="117.354331" y="184.875591" style="fill: #ff0000; stroke: #ff0000"/>
     <use xlink:href="#m5c61989050" x="123.732283" y="177.017953" style="fill: #ff0000; stroke: #ff0000"/>
     <use xlink:href="#m5c61989050" x="130.110236" y="171.124724" style="fill: #ff0000; stroke: #ff0000"/>
     <use xlink:href="#m5c61989050" x="125.645669" y="175.053543" style="fill: #ff0000; stroke: #ff0000"/>
     <use xlink:href="#m5c61989050" x="118.629921" y="173.089134" style="fill: #ff0000; stroke: #ff0000"/>
     <use xlink:href="#m5c61989050" x="116.716535" y="178.327559" style="fill: #ff0000; stroke: #ff0000"/>
     <use xlink:href="#m5c61989050" x="114.165354" y="184.220787" style="fill: #ff0000; stroke: #ff0000"/>
     <use xlink:href="#m5c61989050" x="113.527559" y="186.185197" style="fill: #ff0000; stroke: #ff0000"/>
     <use xlink:href="#m5c61989050" x="118.629921" y="177.017953" style="fill: #ff0000; stroke: #ff0000"/>
     <use xlink:href="#m5c61989050" x="114.165354" y="182.911181" style="fill: #ff0000; stroke: #ff0000"/>
     <use xlink:href="#m5c61989050" x="114.165354" y="190.114016" style="fill: #ff0000; stroke: #ff0000"/>
     <use xlink:href="#m5c61989050" x="112.251969" y="192.078425" style="fill: #ff0000; stroke: #ff0000"/>
    </g>
   </g>
   <g id="PathCollection_16">
    <defs>
     <path id="m6531332de8" d="M -2.738613 0 
L 2.738613 0 
M 0 2.738613 
L 0 -2.738613 
" style="stroke: #8b0000"/>
    </defs>
    <g clip-path="url(#p5cf6c3453b)">
     <use xlink:href="#m6531332de8" x="188.397071" y="91.175879" style="fill: #8b0000; stroke: #8b0000"/>
     <use xlink:href="#m6531332de8" x="179.231315" y="106.32344" style="fill: #8b0000; stroke: #8b0000"/>
    </g>
   </g>
   <g id="PathCollection_17">
    <path d="M 72.516611 258.389841 
L 81.176865 258.389841 
L 81.176865 249.729587 
L 72.516611 249.729587 
L 72.516611 258.389841 
z
" clip-path="url(#p5cf6c3453b)" style="fill: none; stroke: #0000ff"/>
   </g>
   <g id="PathCollection_18">
    <path d="M 96.090739 211.127592 
L 104.750993 211.127592 
L 104.750993 202.467338 
L 96.090739 202.467338 
L 96.090739 211.127592 
z
" clip-path="url(#p5cf6c3453b)" style="fill: none; stroke: #ffa07a"/>
   </g>
   <g id="PathCollection_19">
    <path d="M 97.709145 208.956218 
L 106.369399 208.956218 
L 106.369399 200.295964 
L 97.709145 200.295964 
L 97.709145 208.956218 
z
" clip-path="url(#p5cf6c3453b)" style="fill: none; stroke: #add8e6"/>
   </g>
   <g id="PathCollection_20">
    <path d="M 119.721054 178.041324 
L 128.381308 178.041324 
L 128.381308 169.38107 
L 119.721054 169.38107 
L 119.721054 178.041324 
z
" clip-path="url(#p5cf6c3453b)" style="fill: none; stroke: #ff0000"/>
   </g>
   <g id="PathCollection_21">
    <path d="M 181.012521 100.55683 
L 189.672775 100.55683 
L 189.672775 91.896576 
L 181.012521 91.896576 
L 181.012521 100.55683 
z
" clip-path="url(#p5cf6c3453b)" style="fill: none; stroke: #8b0000"/>
   </g>
   <g id="PathCollection_22">
    <path d="M 120.709637 172.448214 
L 129.369891 172.448214 
L 129.369891 163.78796 
L 120.709637 163.78796 
L 120.709637 172.448214 
z
" clip-path="url(#p5cf6c3453b)" style="fill: none; stroke: #32cd32"/>
   </g>
   <g id="PathCollection_23">
    <path d="M 130.319086 160.116088 
L 138.97934 160.116088 
L 138.97934 151.455834 
L 130.319086 151.455834 
L 130.319086 160.116088 
z
" clip-path="url(#p5cf6c3453b)" style="fill: none; stroke: #ee82ee"/>
   </g>
   <g id="PathCollection_24">
    <defs>
     <path id="m40f3157623" d="M -2.165064 4.330127 
L 0 2.165064 
L 2.165064 4.330127 
L 4.330127 2.165064 
L 2.165064 0 
L 4.330127 -2.165064 
L 2.165064 -4.330127 
L 0 -2.165064 
L -2.165064 -4.330127 
L -4.330127 -2.165064 
L -2.165064 0 
L -4.330127 2.165064 
z
" style="stroke: #ffa07a"/>
    </defs>
    <g clip-path="url(#p5cf6c3453b)">
     <use xlink:href="#m40f3157623" x="101.537008" y="205.418948" style="fill: #ffa07a; stroke: #ffa07a"/>
    </g>
   </g>
   <g id="PathCollection_25">
    <defs>
     <path id="m18f109c6bb" d="M -2.165064 4.330127 
L 0 2.165064 
L 2.165064 4.330127 
L 4.330127 2.165064 
L 2.165064 0 
L 4.330127 -2.165064 
L 2.165064 -4.330127 
L 0 -2.165064 
L -2.165064 -4.330127 
L -4.330127 -2.165064 
L -2.165064 0 
L -4.330127 2.165064 
z
" style="stroke: #0000ff"/>
    </defs>
    <g clip-path="url(#p5cf6c3453b)">
     <use xlink:href="#m18f109c6bb" x="75.052278" y="262.902536" style="fill: #0000ff; stroke: #0000ff"/>
    </g>
   </g>
   <g id="PathCollection_26">
    <defs>
     <path id="me67bf0b29a" d="M -2.165064 4.330127 
L 0 2.165064 
L 2.165064 4.330127 
L 4.330127 2.165064 
L 2.165064 0 
L 4.330127 -2.165064 
L 2.165064 -4.330127 
L 0 -2.165064 
L -2.165064 -4.330127 
L -4.330127 -2.165064 
L -2.165064 0 
L -4.330127 2.165064 
z
" style="stroke: #32cd32"/>
    </defs>
    <g clip-path="url(#p5cf6c3453b)">
     <use xlink:href="#me67bf0b29a" x="123.982495" y="170.605919" style="fill: #32cd32; stroke: #32cd32"/>
    </g>
   </g>
   <g id="PathCollection_27">
    <defs>
     <path id="m5d9b9d491b" d="M -2.165064 4.330127 
L 0 2.165064 
L 2.165064 4.330127 
L 4.330127 2.165064 
L 2.165064 0 
L 4.330127 -2.165064 
L 2.165064 -4.330127 
L 0 -2.165064 
L -2.165064 -4.330127 
L -4.330127 -2.165064 
L -2.165064 0 
L -4.330127 2.165064 
z
" style="stroke: #ee82ee"/>
    </defs>
    <g clip-path="url(#p5cf6c3453b)">
     <use xlink:href="#m5d9b9d491b" x="132.358465" y="159.234591" style="fill: #ee82ee; stroke: #ee82ee"/>
    </g>
   </g>
   <g id="PathCollection_28">
    <defs>
     <path id="m78025179d6" d="M -1.443376 4.330127 
L 1.443376 4.330127 
L 1.443376 1.443376 
L 4.330127 1.443376 
L 4.330127 -1.443376 
L 1.443376 -1.443376 
L 1.443376 -4.330127 
L -1.443376 -4.330127 
L -1.443376 -1.443376 
L -4.330127 -1.443376 
L -4.330127 1.443376 
L -1.443376 1.443376 
z
" style="stroke: #0000ff"/>
    </defs>
    <g clip-path="url(#p5cf6c3453b)">
     <use xlink:href="#m78025179d6" x="77.75396" y="249.705173" style="fill: #0000ff; stroke: #0000ff"/>
    </g>
   </g>
   <g id="PathCollection_29">
    <defs>
     <path id="m6721a8bd69" d="M -1.443376 4.330127 
L 1.443376 4.330127 
L 1.443376 1.443376 
L 4.330127 1.443376 
L 4.330127 -1.443376 
L 1.443376 -1.443376 
L 1.443376 -4.330127 
L -1.443376 -4.330127 
L -1.443376 -1.443376 
L -4.330127 -1.443376 
L -4.330127 1.443376 
L -1.443376 1.443376 
z
" style="stroke: #ffa07a"/>
    </defs>
    <g clip-path="url(#p5cf6c3453b)">
     <use xlink:href="#m6721a8bd69" x="100.675984" y="206.942457" style="fill: #ffa07a; stroke: #ffa07a"/>
    </g>
   </g>
   <g id="PathCollection_30">
    <defs>
     <path id="m572d86882e" d="M -1.443376 4.330127 
L 1.443376 4.330127 
L 1.443376 1.443376 
L 4.330127 1.443376 
L 4.330127 -1.443376 
L 1.443376 -1.443376 
L 1.443376 -4.330127 
L -1.443376 -4.330127 
L -1.443376 -1.443376 
L -4.330127 -1.443376 
L -4.330127 1.443376 
L -1.443376 1.443376 
z
" style="stroke: #add8e6"/>
    </defs>
    <g clip-path="url(#p5cf6c3453b)">
     <use xlink:href="#m572d86882e" x="100.771654" y="206.811496" style="fill: #add8e6; stroke: #add8e6"/>
    </g>
   </g>
   <g id="PathCollection_31">
    <defs>
     <path id="m99a7aecbad" d="M -1.443376 4.330127 
L 1.443376 4.330127 
L 1.443376 1.443376 
L 4.330127 1.443376 
L 4.330127 -1.443376 
L 1.443376 -1.443376 
L 1.443376 -4.330127 
L -1.443376 -4.330127 
L -1.443376 -1.443376 
L -4.330127 -1.443376 
L -4.330127 1.443376 
L -1.443376 1.443376 
z
" style="stroke: #ff0000"/>
    </defs>
    <g clip-path="url(#p5cf6c3453b)">
     <use xlink:href="#m99a7aecbad" x="118.257874" y="181.001339" style="fill: #ff0000; stroke: #ff0000"/>
    </g>
   </g>
   <g id="PathCollection_32">
    <defs>
     <path id="mf70d3dc1cc" d="M -1.443376 4.330127 
L 1.443376 4.330127 
L 1.443376 1.443376 
L 4.330127 1.443376 
L 4.330127 -1.443376 
L 1.443376 -1.443376 
L 1.443376 -4.330127 
L -1.443376 -4.330127 
L -1.443376 -1.443376 
L -4.330127 -1.443376 
L -4.330127 1.443376 
L -1.443376 1.443376 
z
" style="stroke: #8b0000"/>
    </defs>
    <g clip-path="url(#p5cf6c3453b)">
     <use xlink:href="#mf70d3dc1cc" x="183.814193" y="98.74966" style="fill: #8b0000; stroke: #8b0000"/>
    </g>
   </g>
   <g id="PathCollection_33">
    <path d="M 107.787402 200.829667 
L 113.264627 195.352441 
L 107.787402 189.875215 
L 102.310176 195.352441 
L 107.787402 200.829667 
z
" clip-path="url(#p5cf6c3453b)" style="fill: none; stroke: #000000"/>
   </g>
   <g id="PathCollection_34">
    <path d="M -216.850394 534.659873 
C -216.124105 534.659873 -215.427466 534.371315 -214.913902 533.857752 
C -214.400338 533.344188 -214.111781 532.647548 -214.111781 531.92126 
C -214.111781 531.194971 -214.400338 530.498332 -214.913902 529.984768 
C -215.427466 529.471205 -216.124105 529.182647 -216.850394 529.182647 
C -217.576682 529.182647 -218.273322 529.471205 -218.786885 529.984768 
C -219.300449 530.498332 -219.589006 531.194971 -219.589006 531.92126 
C -219.589006 532.647548 -219.300449 533.344188 -218.786885 533.857752 
C -218.273322 534.371315 -217.576682 534.659873 -216.850394 534.659873 
" clip-path="url(#p5cf6c3453b)" style="fill: none; stroke: #000000"/>
   </g>
   <g id="PathCollection_35">
    <defs>
     <path id="m713c511d83" d="M -2.738613 2.738613 
L 2.738613 -2.738613 
M -2.738613 -2.738613 
L 2.738613 2.738613 
" style="stroke: #000000"/>
    </defs>
    <g clip-path="url(#p5cf6c3453b)"/>
   </g>
   <g id="PathCollection_36">
    <defs>
     <path id="m38d57f80dd" d="M -2.738613 0 
L 2.738613 0 
M 0 2.738613 
L 0 -2.738613 
" style="stroke: #000000"/>
    </defs>
    <g clip-path="url(#p5cf6c3453b)"/>
   </g>
   <g id="PathCollection_37">
    <path clip-path="url(#p5cf6c3453b)" style="fill: none; stroke: #000000"/>
   </g>
   <g id="PathCollection_38">
    <path clip-path="url(#p5cf6c3453b)" style="fill: none; stroke: #000000"/>
   </g>
   <g id="PathCollection_39">
    <path clip-path="url(#p5cf6c3453b)" style="fill: none; stroke: #000000"/>
   </g>
   <g id="matplotlib.axis_1">
    <g id="xtick_1">
     <g id="line2d_1">
      <defs>
       <path id="m41bc717e93" d="M 0 0 
L 0 3.5 
" style="stroke: #000000; stroke-width: 0.8"/>
      </defs>
      <g>
       <use xlink:href="#m41bc717e93" x="38.267717" y="302.740157" style="stroke: #000000; stroke-width: 0.8"/>
      </g>
     </g>
     <g id="text_1">
      <!-- −10 -->
      <g transform="translate(28.770607 316.578751)scale(0.09 -0.09)">
       <defs>
        <path id="DejaVuSans-2212" d="M 678 2272 
L 4684 2272 
L 4684 1741 
L 678 1741 
L 678 2272 
z
" transform="scale(0.015625)"/>
        <path id="DejaVuSans-31" d="M 794 531 
L 1825 531 
L 1825 4091 
L 703 3866 
L 703 4441 
L 1819 4666 
L 2450 4666 
L 2450 531 
L 3481 531 
L 3481 0 
L 794 0 
L 794 531 
z
" transform="scale(0.015625)"/>
        <path id="DejaVuSans-30" d="M 2034 4250 
Q 1547 4250 1301 3770 
Q 1056 3291 1056 2328 
Q 1056 1369 1301 889 
Q 1547 409 2034 409 
Q 2525 409 2770 889 
Q 3016 1369 3016 2328 
Q 3016 3291 2770 3770 
Q 2525 4250 2034 4250 
z
M 2034 4750 
Q 2819 4750 3233 4129 
Q 3647 3509 3647 2328 
Q 3647 1150 3233 529 
Q 2819 -91 2034 -91 
Q 1250 -91 836 529 
Q 422 1150 422 2328 
Q 422 3509 836 4129 
Q 1250 4750 2034 4750 
z
" transform="scale(0.015625)"/>
       </defs>
       <use xlink:href="#DejaVuSans-2212"/>
       <use xlink:href="#DejaVuSans-31" x="83.789062"/>
       <use xlink:href="#DejaVuSans-30" x="147.412109"/>
      </g>
     </g>
    </g>
    <g id="xtick_2">
     <g id="line2d_2">
      <g>
       <use xlink:href="#m41bc717e93" x="102.047244" y="302.740157" style="stroke: #000000; stroke-width: 0.8"/>
      </g>
     </g>
     <g id="text_2">
      <!-- 0 -->
      <g transform="translate(99.184119 316.578751)scale(0.09 -0.09)">
       <use xlink:href="#DejaVuSans-30"/>
      </g>
     </g>
    </g>
    <g id="xtick_3">
     <g id="line2d_3">
      <g>
       <use xlink:href="#m41bc717e93" x="165.826772" y="302.740157" style="stroke: #000000; stroke-width: 0.8"/>
      </g>
     </g>
     <g id="text_3">
      <!-- 10 -->
      <g transform="translate(160.100522 316.578751)scale(0.09 -0.09)">
       <use xlink:href="#DejaVuSans-31"/>
       <use xlink:href="#DejaVuSans-30" x="63.623047"/>
      </g>
     </g>
    </g>
    <g id="xtick_4">
     <g id="line2d_4">
      <g>
       <use xlink:href="#m41bc717e93" x="229.606299" y="302.740157" style="stroke: #000000; stroke-width: 0.8"/>
      </g>
     </g>
     <g id="text_4">
      <!-- 20 -->
      <g transform="translate(223.880049 316.578751)scale(0.09 -0.09)">
       <defs>
        <path id="DejaVuSans-32" d="M 1228 531 
L 3431 531 
L 3431 0 
L 469 0 
L 469 531 
Q 828 903 1448 1529 
Q 2069 2156 2228 2338 
Q 2531 2678 2651 2914 
Q 2772 3150 2772 3378 
Q 2772 3750 2511 3984 
Q 2250 4219 1831 4219 
Q 1534 4219 1204 4116 
Q 875 4013 500 3803 
L 500 4441 
Q 881 4594 1212 4672 
Q 1544 4750 1819 4750 
Q 2544 4750 2975 4387 
Q 3406 4025 3406 3419 
Q 3406 3131 3298 2873 
Q 3191 2616 2906 2266 
Q 2828 2175 2409 1742 
Q 1991 1309 1228 531 
z
" transform="scale(0.015625)"/>
       </defs>
       <use xlink:href="#DejaVuSans-32"/>
       <use xlink:href="#DejaVuSans-30" x="63.623047"/>
      </g>
     </g>
    </g>
    <g id="text_5">
     <!-- Temperature change over sea (°C) -->
     <g transform="translate(53.153266 329.289064)scale(0.09 -0.09)">
      <defs>
       <path id="DejaVuSans-54" d="M -19 4666 
L 3928 4666 
L 3928 4134 
L 2272 4134 
L 2272 0 
L 1638 0 
L 1638 4134 
L -19 4134 
L -19 4666 
z
" transform="scale(0.015625)"/>
       <path id="DejaVuSans-65" d="M 3597 1894 
L 3597 1613 
L 953 1613 
Q 991 1019 1311 708 
Q 1631 397 2203 397 
Q 2534 397 2845 478 
Q 3156 559 3463 722 
L 3463 178 
Q 3153 47 2828 -22 
Q 2503 -91 2169 -91 
Q 1331 -91 842 396 
Q 353 884 353 1716 
Q 353 2575 817 3079 
Q 1281 3584 2069 3584 
Q 2775 3584 3186 3129 
Q 3597 2675 3597 1894 
z
M 3022 2063 
Q 3016 2534 2758 2815 
Q 2500 3097 2075 3097 
Q 1594 3097 1305 2825 
Q 1016 2553 972 2059 
L 3022 2063 
z
" transform="scale(0.015625)"/>
       <path id="DejaVuSans-6d" d="M 3328 2828 
Q 3544 3216 3844 3400 
Q 4144 3584 4550 3584 
Q 5097 3584 5394 3201 
Q 5691 2819 5691 2113 
L 5691 0 
L 5113 0 
L 5113 2094 
Q 5113 2597 4934 2840 
Q 4756 3084 4391 3084 
Q 3944 3084 3684 2787 
Q 3425 2491 3425 1978 
L 3425 0 
L 2847 0 
L 2847 2094 
Q 2847 2600 2669 2842 
Q 2491 3084 2119 3084 
Q 1678 3084 1418 2786 
Q 1159 2488 1159 1978 
L 1159 0 
L 581 0 
L 581 3500 
L 1159 3500 
L 1159 2956 
Q 1356 3278 1631 3431 
Q 1906 3584 2284 3584 
Q 2666 3584 2933 3390 
Q 3200 3197 3328 2828 
z
" transform="scale(0.015625)"/>
       <path id="DejaVuSans-70" d="M 1159 525 
L 1159 -1331 
L 581 -1331 
L 581 3500 
L 1159 3500 
L 1159 2969 
Q 1341 3281 1617 3432 
Q 1894 3584 2278 3584 
Q 2916 3584 3314 3078 
Q 3713 2572 3713 1747 
Q 3713 922 3314 415 
Q 2916 -91 2278 -91 
Q 1894 -91 1617 61 
Q 1341 213 1159 525 
z
M 3116 1747 
Q 3116 2381 2855 2742 
Q 2594 3103 2138 3103 
Q 1681 3103 1420 2742 
Q 1159 2381 1159 1747 
Q 1159 1113 1420 752 
Q 1681 391 2138 391 
Q 2594 391 2855 752 
Q 3116 1113 3116 1747 
z
" transform="scale(0.015625)"/>
       <path id="DejaVuSans-72" d="M 2631 2963 
Q 2534 3019 2420 3045 
Q 2306 3072 2169 3072 
Q 1681 3072 1420 2755 
Q 1159 2438 1159 1844 
L 1159 0 
L 581 0 
L 581 3500 
L 1159 3500 
L 1159 2956 
Q 1341 3275 1631 3429 
Q 1922 3584 2338 3584 
Q 2397 3584 2469 3576 
Q 2541 3569 2628 3553 
L 2631 2963 
z
" transform="scale(0.015625)"/>
       <path id="DejaVuSans-61" d="M 2194 1759 
Q 1497 1759 1228 1600 
Q 959 1441 959 1056 
Q 959 750 1161 570 
Q 1363 391 1709 391 
Q 2188 391 2477 730 
Q 2766 1069 2766 1631 
L 2766 1759 
L 2194 1759 
z
M 3341 1997 
L 3341 0 
L 2766 0 
L 2766 531 
Q 2569 213 2275 61 
Q 1981 -91 1556 -91 
Q 1019 -91 701 211 
Q 384 513 384 1019 
Q 384 1609 779 1909 
Q 1175 2209 1959 2209 
L 2766 2209 
L 2766 2266 
Q 2766 2663 2505 2880 
Q 2244 3097 1772 3097 
Q 1472 3097 1187 3025 
Q 903 2953 641 2809 
L 641 3341 
Q 956 3463 1253 3523 
Q 1550 3584 1831 3584 
Q 2591 3584 2966 3190 
Q 3341 2797 3341 1997 
z
" transform="scale(0.015625)"/>
       <path id="DejaVuSans-74" d="M 1172 4494 
L 1172 3500 
L 2356 3500 
L 2356 3053 
L 1172 3053 
L 1172 1153 
Q 1172 725 1289 603 
Q 1406 481 1766 481 
L 2356 481 
L 2356 0 
L 1766 0 
Q 1100 0 847 248 
Q 594 497 594 1153 
L 594 3053 
L 172 3053 
L 172 3500 
L 594 3500 
L 594 4494 
L 1172 4494 
z
" transform="scale(0.015625)"/>
       <path id="DejaVuSans-75" d="M 544 1381 
L 544 3500 
L 1119 3500 
L 1119 1403 
Q 1119 906 1312 657 
Q 1506 409 1894 409 
Q 2359 409 2629 706 
Q 2900 1003 2900 1516 
L 2900 3500 
L 3475 3500 
L 3475 0 
L 2900 0 
L 2900 538 
Q 2691 219 2414 64 
Q 2138 -91 1772 -91 
Q 1169 -91 856 284 
Q 544 659 544 1381 
z
M 1991 3584 
L 1991 3584 
z
" transform="scale(0.015625)"/>
       <path id="DejaVuSans-20" transform="scale(0.015625)"/>
       <path id="DejaVuSans-63" d="M 3122 3366 
L 3122 2828 
Q 2878 2963 2633 3030 
Q 2388 3097 2138 3097 
Q 1578 3097 1268 2742 
Q 959 2388 959 1747 
Q 959 1106 1268 751 
Q 1578 397 2138 397 
Q 2388 397 2633 464 
Q 2878 531 3122 666 
L 3122 134 
Q 2881 22 2623 -34 
Q 2366 -91 2075 -91 
Q 1284 -91 818 406 
Q 353 903 353 1747 
Q 353 2603 823 3093 
Q 1294 3584 2113 3584 
Q 2378 3584 2631 3529 
Q 2884 3475 3122 3366 
z
" transform="scale(0.015625)"/>
       <path id="DejaVuSans-68" d="M 3513 2113 
L 3513 0 
L 2938 0 
L 2938 2094 
Q 2938 2591 2744 2837 
Q 2550 3084 2163 3084 
Q 1697 3084 1428 2787 
Q 1159 2491 1159 1978 
L 1159 0 
L 581 0 
L 581 4863 
L 1159 4863 
L 1159 2956 
Q 1366 3272 1645 3428 
Q 1925 3584 2291 3584 
Q 2894 3584 3203 3211 
Q 3513 2838 3513 2113 
z
" transform="scale(0.015625)"/>
       <path id="DejaVuSans-6e" d="M 3513 2113 
L 3513 0 
L 2938 0 
L 2938 2094 
Q 2938 2591 2744 2837 
Q 2550 3084 2163 3084 
Q 1697 3084 1428 2787 
Q 1159 2491 1159 1978 
L 1159 0 
L 581 0 
L 581 3500 
L 1159 3500 
L 1159 2956 
Q 1366 3272 1645 3428 
Q 1925 3584 2291 3584 
Q 2894 3584 3203 3211 
Q 3513 2838 3513 2113 
z
" transform="scale(0.015625)"/>
       <path id="DejaVuSans-67" d="M 2906 1791 
Q 2906 2416 2648 2759 
Q 2391 3103 1925 3103 
Q 1463 3103 1205 2759 
Q 947 2416 947 1791 
Q 947 1169 1205 825 
Q 1463 481 1925 481 
Q 2391 481 2648 825 
Q 2906 1169 2906 1791 
z
M 3481 434 
Q 3481 -459 3084 -895 
Q 2688 -1331 1869 -1331 
Q 1566 -1331 1297 -1286 
Q 1028 -1241 775 -1147 
L 775 -588 
Q 1028 -725 1275 -790 
Q 1522 -856 1778 -856 
Q 2344 -856 2625 -561 
Q 2906 -266 2906 331 
L 2906 616 
Q 2728 306 2450 153 
Q 2172 0 1784 0 
Q 1141 0 747 490 
Q 353 981 353 1791 
Q 353 2603 747 3093 
Q 1141 3584 1784 3584 
Q 2172 3584 2450 3431 
Q 2728 3278 2906 2969 
L 2906 3500 
L 3481 3500 
L 3481 434 
z
" transform="scale(0.015625)"/>
       <path id="DejaVuSans-6f" d="M 1959 3097 
Q 1497 3097 1228 2736 
Q 959 2375 959 1747 
Q 959 1119 1226 758 
Q 1494 397 1959 397 
Q 2419 397 2687 759 
Q 2956 1122 2956 1747 
Q 2956 2369 2687 2733 
Q 2419 3097 1959 3097 
z
M 1959 3584 
Q 2709 3584 3137 3096 
Q 3566 2609 3566 1747 
Q 3566 888 3137 398 
Q 2709 -91 1959 -91 
Q 1206 -91 779 398 
Q 353 888 353 1747 
Q 353 2609 779 3096 
Q 1206 3584 1959 3584 
z
" transform="scale(0.015625)"/>
       <path id="DejaVuSans-76" d="M 191 3500 
L 800 3500 
L 1894 563 
L 2988 3500 
L 3597 3500 
L 2284 0 
L 1503 0 
L 191 3500 
z
" transform="scale(0.015625)"/>
       <path id="DejaVuSans-73" d="M 2834 3397 
L 2834 2853 
Q 2591 2978 2328 3040 
Q 2066 3103 1784 3103 
Q 1356 3103 1142 2972 
Q 928 2841 928 2578 
Q 928 2378 1081 2264 
Q 1234 2150 1697 2047 
L 1894 2003 
Q 2506 1872 2764 1633 
Q 3022 1394 3022 966 
Q 3022 478 2636 193 
Q 2250 -91 1575 -91 
Q 1294 -91 989 -36 
Q 684 19 347 128 
L 347 722 
Q 666 556 975 473 
Q 1284 391 1588 391 
Q 1994 391 2212 530 
Q 2431 669 2431 922 
Q 2431 1156 2273 1281 
Q 2116 1406 1581 1522 
L 1381 1569 
Q 847 1681 609 1914 
Q 372 2147 372 2553 
Q 372 3047 722 3315 
Q 1072 3584 1716 3584 
Q 2034 3584 2315 3537 
Q 2597 3491 2834 3397 
z
" transform="scale(0.015625)"/>
       <path id="DejaVuSans-28" d="M 1984 4856 
Q 1566 4138 1362 3434 
Q 1159 2731 1159 2009 
Q 1159 1288 1364 580 
Q 1569 -128 1984 -844 
L 1484 -844 
Q 1016 -109 783 600 
Q 550 1309 550 2009 
Q 550 2706 781 3412 
Q 1013 4119 1484 4856 
L 1984 4856 
z
" transform="scale(0.015625)"/>
       <path id="DejaVuSans-b0" d="M 1600 4347 
Q 1350 4347 1178 4173 
Q 1006 4000 1006 3750 
Q 1006 3503 1178 3333 
Q 1350 3163 1600 3163 
Q 1850 3163 2022 3333 
Q 2194 3503 2194 3750 
Q 2194 3997 2020 4172 
Q 1847 4347 1600 4347 
z
M 1600 4750 
Q 1800 4750 1984 4673 
Q 2169 4597 2303 4453 
Q 2447 4313 2519 4134 
Q 2591 3956 2591 3750 
Q 2591 3338 2302 3052 
Q 2013 2766 1594 2766 
Q 1172 2766 890 3047 
Q 609 3328 609 3750 
Q 609 4169 896 4459 
Q 1184 4750 1600 4750 
z
" transform="scale(0.015625)"/>
       <path id="DejaVuSans-43" d="M 4122 4306 
L 4122 3641 
Q 3803 3938 3442 4084 
Q 3081 4231 2675 4231 
Q 1875 4231 1450 3742 
Q 1025 3253 1025 2328 
Q 1025 1406 1450 917 
Q 1875 428 2675 428 
Q 3081 428 3442 575 
Q 3803 722 4122 1019 
L 4122 359 
Q 3791 134 3420 21 
Q 3050 -91 2638 -91 
Q 1578 -91 968 557 
Q 359 1206 359 2328 
Q 359 3453 968 4101 
Q 1578 4750 2638 4750 
Q 3056 4750 3426 4639 
Q 3797 4528 4122 4306 
z
" transform="scale(0.015625)"/>
       <path id="DejaVuSans-29" d="M 513 4856 
L 1013 4856 
Q 1481 4119 1714 3412 
Q 1947 2706 1947 2009 
Q 1947 1309 1714 600 
Q 1481 -109 1013 -844 
L 513 -844 
Q 928 -128 1133 580 
Q 1338 1288 1338 2009 
Q 1338 2731 1133 3434 
Q 928 4138 513 4856 
z
" transform="scale(0.015625)"/>
      </defs>
      <use xlink:href="#DejaVuSans-54"/>
      <use xlink:href="#DejaVuSans-65" x="44.083984"/>
      <use xlink:href="#DejaVuSans-6d" x="105.607422"/>
      <use xlink:href="#DejaVuSans-70" x="203.019531"/>
      <use xlink:href="#DejaVuSans-65" x="266.496094"/>
      <use xlink:href="#DejaVuSans-72" x="328.019531"/>
      <use xlink:href="#DejaVuSans-61" x="369.132812"/>
      <use xlink:href="#DejaVuSans-74" x="430.412109"/>
      <use xlink:href="#DejaVuSans-75" x="469.621094"/>
      <use xlink:href="#DejaVuSans-72" x="533"/>
      <use xlink:href="#DejaVuSans-65" x="571.863281"/>
      <use xlink:href="#DejaVuSans-20" x="633.386719"/>
      <use xlink:href="#DejaVuSans-63" x="665.173828"/>
      <use xlink:href="#DejaVuSans-68" x="720.154297"/>
      <use xlink:href="#DejaVuSans-61" x="783.533203"/>
      <use xlink:href="#DejaVuSans-6e" x="844.8125"/>
      <use xlink:href="#DejaVuSans-67" x="908.191406"/>
      <use xlink:href="#DejaVuSans-65" x="971.667969"/>
      <use xlink:href="#DejaVuSans-20" x="1033.191406"/>
      <use xlink:href="#DejaVuSans-6f" x="1064.978516"/>
      <use xlink:href="#DejaVuSans-76" x="1126.160156"/>
      <use xlink:href="#DejaVuSans-65" x="1185.339844"/>
      <use xlink:href="#DejaVuSans-72" x="1246.863281"/>
      <use xlink:href="#DejaVuSans-20" x="1287.976562"/>
      <use xlink:href="#DejaVuSans-73" x="1319.763672"/>
      <use xlink:href="#DejaVuSans-65" x="1371.863281"/>
      <use xlink:href="#DejaVuSans-61" x="1433.386719"/>
      <use xlink:href="#DejaVuSans-20" x="1494.666016"/>
      <use xlink:href="#DejaVuSans-28" x="1526.453125"/>
      <use xlink:href="#DejaVuSans-b0" x="1565.466797"/>
      <use xlink:href="#DejaVuSans-43" x="1615.466797"/>
      <use xlink:href="#DejaVuSans-29" x="1685.291016"/>
     </g>
    </g>
   </g>
   <g id="matplotlib.axis_2">
    <g id="ytick_1">
     <g id="line2d_5">
      <defs>
       <path id="mcfba10167c" d="M 0 0 
L -3.5 0 
" style="stroke: #000000; stroke-width: 0.8"/>
      </defs>
      <g>
       <use xlink:href="#mcfba10167c" x="31.889764" y="302.740157" style="stroke: #000000; stroke-width: 0.8"/>
      </g>
     </g>
     <g id="text_6">
      <!-- −15 -->
      <g transform="translate(5.895545 306.159454)scale(0.09 -0.09)">
       <defs>
        <path id="DejaVuSans-35" d="M 691 4666 
L 3169 4666 
L 3169 4134 
L 1269 4134 
L 1269 2991 
Q 1406 3038 1543 3061 
Q 1681 3084 1819 3084 
Q 2600 3084 3056 2656 
Q 3513 2228 3513 1497 
Q 3513 744 3044 326 
Q 2575 -91 1722 -91 
Q 1428 -91 1123 -41 
Q 819 9 494 109 
L 494 744 
Q 775 591 1075 516 
Q 1375 441 1709 441 
Q 2250 441 2565 725 
Q 2881 1009 2881 1497 
Q 2881 1984 2565 2268 
Q 2250 2553 1709 2553 
Q 1456 2553 1204 2497 
Q 953 2441 691 2322 
L 691 4666 
z
" transform="scale(0.015625)"/>
       </defs>
       <use xlink:href="#DejaVuSans-2212"/>
       <use xlink:href="#DejaVuSans-31" x="83.789062"/>
       <use xlink:href="#DejaVuSans-35" x="147.412109"/>
      </g>
     </g>
    </g>
    <g id="ytick_2">
     <g id="line2d_6">
      <g>
       <use xlink:href="#mcfba10167c" x="31.889764" y="270" style="stroke: #000000; stroke-width: 0.8"/>
      </g>
     </g>
     <g id="text_7">
      <!-- −10 -->
      <g transform="translate(5.895545 273.419297)scale(0.09 -0.09)">
       <use xlink:href="#DejaVuSans-2212"/>
       <use xlink:href="#DejaVuSans-31" x="83.789062"/>
       <use xlink:href="#DejaVuSans-30" x="147.412109"/>
      </g>
     </g>
    </g>
    <g id="ytick_3">
     <g id="line2d_7">
      <g>
       <use xlink:href="#mcfba10167c" x="31.889764" y="237.259843" style="stroke: #000000; stroke-width: 0.8"/>
      </g>
     </g>
     <g id="text_8">
      <!-- −5 -->
      <g transform="translate(11.621795 240.679139)scale(0.09 -0.09)">
       <use xlink:href="#DejaVuSans-2212"/>
       <use xlink:href="#DejaVuSans-35" x="83.789062"/>
      </g>
     </g>
    </g>
    <g id="ytick_4">
     <g id="line2d_8">
      <g>
       <use xlink:href="#mcfba10167c" x="31.889764" y="204.519685" style="stroke: #000000; stroke-width: 0.8"/>
      </g>
     </g>
     <g id="text_9">
      <!-- 0 -->
      <g transform="translate(19.163514 207.938982)scale(0.09 -0.09)">
       <use xlink:href="#DejaVuSans-30"/>
      </g>
     </g>
    </g>
    <g id="ytick_5">
     <g id="line2d_9">
      <g>
       <use xlink:href="#mcfba10167c" x="31.889764" y="171.779528" style="stroke: #000000; stroke-width: 0.8"/>
      </g>
     </g>
     <g id="text_10">
      <!-- 5 -->
      <g transform="translate(19.163514 175.198824)scale(0.09 -0.09)">
       <use xlink:href="#DejaVuSans-35"/>
      </g>
     </g>
    </g>
    <g id="ytick_6">
     <g id="line2d_10">
      <g>
       <use xlink:href="#mcfba10167c" x="31.889764" y="139.03937" style="stroke: #000000; stroke-width: 0.8"/>
      </g>
     </g>
     <g id="text_11">
      <!-- 10 -->
      <g transform="translate(13.437264 142.458667)scale(0.09 -0.09)">
       <use xlink:href="#DejaVuSans-31"/>
       <use xlink:href="#DejaVuSans-30" x="63.623047"/>
      </g>
     </g>
    </g>
    <g id="ytick_7">
     <g id="line2d_11">
      <g>
       <use xlink:href="#mcfba10167c" x="31.889764" y="106.299213" style="stroke: #000000; stroke-width: 0.8"/>
      </g>
     </g>
     <g id="text_12">
      <!-- 15 -->
      <g transform="translate(13.437264 109.718509)scale(0.09 -0.09)">
       <use xlink:href="#DejaVuSans-31"/>
       <use xlink:href="#DejaVuSans-35" x="63.623047"/>
      </g>
     </g>
    </g>
    <g id="ytick_8">
     <g id="line2d_12">
      <g>
       <use xlink:href="#mcfba10167c" x="31.889764" y="73.559055" style="stroke: #000000; stroke-width: 0.8"/>
      </g>
     </g>
     <g id="text_13">
      <!-- 20 -->
      <g transform="translate(13.437264 76.978352)scale(0.09 -0.09)">
       <use xlink:href="#DejaVuSans-32"/>
       <use xlink:href="#DejaVuSans-30" x="63.623047"/>
      </g>
     </g>
    </g>
    <g id="ytick_9">
     <g id="line2d_13">
      <g>
       <use xlink:href="#mcfba10167c" x="31.889764" y="40.818898" style="stroke: #000000; stroke-width: 0.8"/>
      </g>
     </g>
     <g id="text_14">
      <!-- 25 -->
      <g transform="translate(13.437264 44.238195)scale(0.09 -0.09)">
       <use xlink:href="#DejaVuSans-32"/>
       <use xlink:href="#DejaVuSans-35" x="63.623047"/>
      </g>
     </g>
    </g>
    <g id="text_15">
     <!-- Temperature change over land (°C) -->
     <g transform="translate(0.023826 251.219996)rotate(-90)scale(0.09 -0.09)">
      <defs>
       <path id="DejaVuSans-6c" d="M 603 4863 
L 1178 4863 
L 1178 0 
L 603 0 
L 603 4863 
z
" transform="scale(0.015625)"/>
       <path id="DejaVuSans-64" d="M 2906 2969 
L 2906 4863 
L 3481 4863 
L 3481 0 
L 2906 0 
L 2906 525 
Q 2725 213 2448 61 
Q 2172 -91 1784 -91 
Q 1150 -91 751 415 
Q 353 922 353 1747 
Q 353 2572 751 3078 
Q 1150 3584 1784 3584 
Q 2172 3584 2448 3432 
Q 2725 3281 2906 2969 
z
M 947 1747 
Q 947 1113 1208 752 
Q 1469 391 1925 391 
Q 2381 391 2643 752 
Q 2906 1113 2906 1747 
Q 2906 2381 2643 2742 
Q 2381 3103 1925 3103 
Q 1469 3103 1208 2742 
Q 947 2381 947 1747 
z
" transform="scale(0.015625)"/>
      </defs>
      <use xlink:href="#DejaVuSans-54"/>
      <use xlink:href="#DejaVuSans-65" x="44.083984"/>
      <use xlink:href="#DejaVuSans-6d" x="105.607422"/>
      <use xlink:href="#DejaVuSans-70" x="203.019531"/>
      <use xlink:href="#DejaVuSans-65" x="266.496094"/>
      <use xlink:href="#DejaVuSans-72" x="328.019531"/>
      <use xlink:href="#DejaVuSans-61" x="369.132812"/>
      <use xlink:href="#DejaVuSans-74" x="430.412109"/>
      <use xlink:href="#DejaVuSans-75" x="469.621094"/>
      <use xlink:href="#DejaVuSans-72" x="533"/>
      <use xlink:href="#DejaVuSans-65" x="571.863281"/>
      <use xlink:href="#DejaVuSans-20" x="633.386719"/>
      <use xlink:href="#DejaVuSans-63" x="665.173828"/>
      <use xlink:href="#DejaVuSans-68" x="720.154297"/>
      <use xlink:href="#DejaVuSans-61" x="783.533203"/>
      <use xlink:href="#DejaVuSans-6e" x="844.8125"/>
      <use xlink:href="#DejaVuSans-67" x="908.191406"/>
      <use xlink:href="#DejaVuSans-65" x="971.667969"/>
      <use xlink:href="#DejaVuSans-20" x="1033.191406"/>
      <use xlink:href="#DejaVuSans-6f" x="1064.978516"/>
      <use xlink:href="#DejaVuSans-76" x="1126.160156"/>
      <use xlink:href="#DejaVuSans-65" x="1185.339844"/>
      <use xlink:href="#DejaVuSans-72" x="1246.863281"/>
      <use xlink:href="#DejaVuSans-20" x="1287.976562"/>
      <use xlink:href="#DejaVuSans-6c" x="1319.763672"/>
      <use xlink:href="#DejaVuSans-61" x="1347.546875"/>
      <use xlink:href="#DejaVuSans-6e" x="1408.826172"/>
      <use xlink:href="#DejaVuSans-64" x="1472.205078"/>
      <use xlink:href="#DejaVuSans-20" x="1535.681641"/>
      <use xlink:href="#DejaVuSans-28" x="1567.46875"/>
      <use xlink:href="#DejaVuSans-b0" x="1606.482422"/>
      <use xlink:href="#DejaVuSans-43" x="1656.482422"/>
      <use xlink:href="#DejaVuSans-29" x="1726.306641"/>
     </g>
    </g>
   </g>
   <g id="line2d_14">
    <path d="M 102.047244 302.740157 
L 102.047244 40.818898 
" clip-path="url(#p5cf6c3453b)" style="fill: none; stroke-dasharray: 0.5,0.825; stroke-dashoffset: 0; stroke: #808080; stroke-width: 0.5"/>
   </g>
   <g id="line2d_15">
    <path d="M 31.889764 204.519685 
L 229.606299 204.519685 
" clip-path="url(#p5cf6c3453b)" style="fill: none; stroke-dasharray: 0.5,0.825; stroke-dashoffset: 0; stroke: #808080; stroke-width: 0.5"/>
   </g>
   <g id="LineCollection_1">
    <path d="M 103.775669 200.689087 
L 103.903228 200.689087 
" clip-path="url(#p5cf6c3453b)" style="fill: none; stroke: #000000; stroke-width: 1.5"/>
   </g>
   <g id="LineCollection_2">
    <path d="M 103.839449 200.754567 
L 103.839449 200.623606 
" clip-path="url(#p5cf6c3453b)" style="fill: none; stroke: #000000; stroke-width: 1.5"/>
   </g>
   <g id="line2d_16">
    <path d="M 31.889764 333.783484 
L 35.07874 327.238534 
L 38.267717 320.757328 
L 41.456693 314.339868 
L 44.645669 307.986152 
L 47.834646 301.696182 
L 51.023622 295.469957 
L 54.212598 289.307477 
L 57.401575 283.208742 
L 60.590551 277.173752 
L 63.779528 271.202507 
L 66.968504 265.295007 
L 70.15748 259.451252 
L 73.346457 253.671243 
L 76.535433 247.954978 
L 79.724409 242.302459 
L 82.913386 236.713684 
L 86.102362 231.188655 
L 89.291339 225.727371 
L 92.480315 220.329832 
L 95.669291 214.996038 
L 98.858268 209.725989 
L 102.047244 204.519685 
L 105.23622 199.377126 
L 108.425197 194.298313 
L 111.614173 189.283244 
L 114.80315 184.331921 
L 117.992126 179.444342 
L 121.181102 174.620509 
L 124.370079 169.860421 
L 127.559055 165.164078 
L 130.748031 160.531479 
L 133.937008 155.962627 
L 137.125984 151.457519 
L 140.314961 147.016156 
L 143.503937 142.638538 
L 146.692913 138.324666 
L 149.88189 134.074538 
L 153.070866 129.888156 
L 156.259843 125.765518 
L 159.448819 121.706626 
L 162.637795 117.711479 
L 165.826772 113.780077 
L 169.015748 109.91242 
L 172.204724 106.108508 
L 175.393701 102.368341 
L 178.582677 98.691919 
L 181.771654 95.079242 
L 184.96063 91.530311 
L 188.149606 88.045124 
L 191.338583 84.623683 
L 194.527559 81.265987 
L 197.716535 77.972035 
L 200.905512 74.741829 
L 204.094488 71.575368 
L 207.283465 68.472652 
L 210.472441 65.433681 
L 213.661417 62.458456 
L 216.850394 59.546975 
L 220.03937 56.699239 
L 223.228346 53.915249 
L 226.417323 51.195003 
" clip-path="url(#p5cf6c3453b)" style="fill: none; stroke: #000000; stroke-width: 1.5; stroke-linecap: square"/>
   </g>
   <g id="line2d_17">
    <defs>
     <path id="m974e5fd3dd" d="M 0 -3 
L -0.673542 -0.927051 
L -2.85317 -0.927051 
L -1.089814 0.354102 
L -1.763356 2.427051 
L -0 1.145898 
L 1.763356 2.427051 
L 1.089814 0.354102 
L 2.85317 -0.927051 
L 0.673542 -0.927051 
z
" style="stroke: #ffa07a; stroke-linejoin: bevel"/>
    </defs>
    <g clip-path="url(#p5cf6c3453b)">
     <use xlink:href="#m974e5fd3dd" x="103.839449" y="200.689087" style="fill: #ffa07a; stroke: #ffa07a; stroke-linejoin: bevel"/>
    </g>
   </g>
   <g id="patch_3">
    <path d="M 31.889764 302.740157 
L 31.889764 40.818898 
" style="fill: none; stroke: #000000; stroke-width: 0.5; stroke-linejoin: miter; stroke-linecap: square"/>
   </g>
   <g id="patch_4">
    <path d="M 31.889764 302.740157 
L 229.606299 302.740157 
" style="fill: none; stroke: #000000; stroke-width: 0.5; stroke-linejoin: miter; stroke-linecap: square"/>
   </g>
   <g id="text_16">
    <!-- b) Global temperature change over  -->
    <g transform="translate(31.889764 25.740866)scale(0.09 -0.09)">
     <defs>
      <path id="DejaVuSans-62" d="M 3116 1747 
Q 3116 2381 2855 2742 
Q 2594 3103 2138 3103 
Q 1681 3103 1420 2742 
Q 1159 2381 1159 1747 
Q 1159 1113 1420 752 
Q 1681 391 2138 391 
Q 2594 391 2855 752 
Q 3116 1113 3116 1747 
z
M 1159 2969 
Q 1341 3281 1617 3432 
Q 1894 3584 2278 3584 
Q 2916 3584 3314 3078 
Q 3713 2572 3713 1747 
Q 3713 922 3314 415 
Q 2916 -91 2278 -91 
Q 1894 -91 1617 61 
Q 1341 213 1159 525 
L 1159 0 
L 581 0 
L 581 4863 
L 1159 4863 
L 1159 2969 
z
" transform="scale(0.015625)"/>
      <path id="DejaVuSans-47" d="M 3809 666 
L 3809 1919 
L 2778 1919 
L 2778 2438 
L 4434 2438 
L 4434 434 
Q 4069 175 3628 42 
Q 3188 -91 2688 -91 
Q 1594 -91 976 548 
Q 359 1188 359 2328 
Q 359 3472 976 4111 
Q 1594 4750 2688 4750 
Q 3144 4750 3555 4637 
Q 3966 4525 4313 4306 
L 4313 3634 
Q 3963 3931 3569 4081 
Q 3175 4231 2741 4231 
Q 1884 4231 1454 3753 
Q 1025 3275 1025 2328 
Q 1025 1384 1454 906 
Q 1884 428 2741 428 
Q 3075 428 3337 486 
Q 3600 544 3809 666 
z
" transform="scale(0.015625)"/>
     </defs>
     <use xlink:href="#DejaVuSans-62"/>
     <use xlink:href="#DejaVuSans-29" x="63.476562"/>
     <use xlink:href="#DejaVuSans-20" x="102.490234"/>
     <use xlink:href="#DejaVuSans-47" x="134.277344"/>
     <use xlink:href="#DejaVuSans-6c" x="211.767578"/>
     <use xlink:href="#DejaVuSans-6f" x="239.550781"/>
     <use xlink:href="#DejaVuSans-62" x="300.732422"/>
     <use xlink:href="#DejaVuSans-61" x="364.208984"/>
     <use xlink:href="#DejaVuSans-6c" x="425.488281"/>
     <use xlink:href="#DejaVuSans-20" x="453.271484"/>
     <use xlink:href="#DejaVuSans-74" x="485.058594"/>
     <use xlink:href="#DejaVuSans-65" x="524.267578"/>
     <use xlink:href="#DejaVuSans-6d" x="585.791016"/>
     <use xlink:href="#DejaVuSans-70" x="683.203125"/>
     <use xlink:href="#DejaVuSans-65" x="746.679688"/>
     <use xlink:href="#DejaVuSans-72" x="808.203125"/>
     <use xlink:href="#DejaVuSans-61" x="849.316406"/>
     <use xlink:href="#DejaVuSans-74" x="910.595703"/>
     <use xlink:href="#DejaVuSans-75" x="949.804688"/>
     <use xlink:href="#DejaVuSans-72" x="1013.183594"/>
     <use xlink:href="#DejaVuSans-65" x="1052.046875"/>
     <use xlink:href="#DejaVuSans-20" x="1113.570312"/>
     <use xlink:href="#DejaVuSans-63" x="1145.357422"/>
     <use xlink:href="#DejaVuSans-68" x="1200.337891"/>
     <use xlink:href="#DejaVuSans-61" x="1263.716797"/>
     <use xlink:href="#DejaVuSans-6e" x="1324.996094"/>
     <use xlink:href="#DejaVuSans-67" x="1388.375"/>
     <use xlink:href="#DejaVuSans-65" x="1451.851562"/>
     <use xlink:href="#DejaVuSans-20" x="1513.375"/>
     <use xlink:href="#DejaVuSans-6f" x="1545.162109"/>
     <use xlink:href="#DejaVuSans-76" x="1606.34375"/>
     <use xlink:href="#DejaVuSans-65" x="1665.523438"/>
     <use xlink:href="#DejaVuSans-72" x="1727.046875"/>
     <use xlink:href="#DejaVuSans-20" x="1768.160156"/>
    </g>
    <!-- land and ocean for a range of climates -->
    <g transform="translate(31.889764 35.818898)scale(0.09 -0.09)">
     <defs>
      <path id="DejaVuSans-66" d="M 2375 4863 
L 2375 4384 
L 1825 4384 
Q 1516 4384 1395 4259 
Q 1275 4134 1275 3809 
L 1275 3500 
L 2222 3500 
L 2222 3053 
L 1275 3053 
L 1275 0 
L 697 0 
L 697 3053 
L 147 3053 
L 147 3500 
L 697 3500 
L 697 3744 
Q 697 4328 969 4595 
Q 1241 4863 1831 4863 
L 2375 4863 
z
" transform="scale(0.015625)"/>
      <path id="DejaVuSans-69" d="M 603 3500 
L 1178 3500 
L 1178 0 
L 603 0 
L 603 3500 
z
M 603 4863 
L 1178 4863 
L 1178 4134 
L 603 4134 
L 603 4863 
z
" transform="scale(0.015625)"/>
     </defs>
     <use xlink:href="#DejaVuSans-6c"/>
     <use xlink:href="#DejaVuSans-61" x="27.783203"/>
     <use xlink:href="#DejaVuSans-6e" x="89.0625"/>
     <use xlink:href="#DejaVuSans-64" x="152.441406"/>
     <use xlink:href="#DejaVuSans-20" x="215.917969"/>
     <use xlink:href="#DejaVuSans-61" x="247.705078"/>
     <use xlink:href="#DejaVuSans-6e" x="308.984375"/>
     <use xlink:href="#DejaVuSans-64" x="372.363281"/>
     <use xlink:href="#DejaVuSans-20" x="435.839844"/>
     <use xlink:href="#DejaVuSans-6f" x="467.626953"/>
     <use xlink:href="#DejaVuSans-63" x="528.808594"/>
     <use xlink:href="#DejaVuSans-65" x="583.789062"/>
     <use xlink:href="#DejaVuSans-61" x="645.3125"/>
     <use xlink:href="#DejaVuSans-6e" x="706.591797"/>
     <use xlink:href="#DejaVuSans-20" x="769.970703"/>
     <use xlink:href="#DejaVuSans-66" x="801.757812"/>
     <use xlink:href="#DejaVuSans-6f" x="836.962891"/>
     <use xlink:href="#DejaVuSans-72" x="898.144531"/>
     <use xlink:href="#DejaVuSans-20" x="939.257812"/>
     <use xlink:href="#DejaVuSans-61" x="971.044922"/>
     <use xlink:href="#DejaVuSans-20" x="1032.324219"/>
     <use xlink:href="#DejaVuSans-72" x="1064.111328"/>
     <use xlink:href="#DejaVuSans-61" x="1105.224609"/>
     <use xlink:href="#DejaVuSans-6e" x="1166.503906"/>
     <use xlink:href="#DejaVuSans-67" x="1229.882812"/>
     <use xlink:href="#DejaVuSans-65" x="1293.359375"/>
     <use xlink:href="#DejaVuSans-20" x="1354.882812"/>
     <use xlink:href="#DejaVuSans-6f" x="1386.669922"/>
     <use xlink:href="#DejaVuSans-66" x="1447.851562"/>
     <use xlink:href="#DejaVuSans-20" x="1483.056641"/>
     <use xlink:href="#DejaVuSans-63" x="1514.84375"/>
     <use xlink:href="#DejaVuSans-6c" x="1569.824219"/>
     <use xlink:href="#DejaVuSans-69" x="1597.607422"/>
     <use xlink:href="#DejaVuSans-6d" x="1625.390625"/>
     <use xlink:href="#DejaVuSans-61" x="1722.802734"/>
     <use xlink:href="#DejaVuSans-74" x="1784.082031"/>
     <use xlink:href="#DejaVuSans-65" x="1823.291016"/>
     <use xlink:href="#DejaVuSans-73" x="1884.814453"/>
    </g>
   </g>
   <g id="legend_1">
    <g id="patch_5">
     <path d="M 127.152549 298.240157 
L 223.306299 298.240157 
Q 225.106299 298.240157 225.106299 296.440157 
L 225.106299 85.975157 
Q 225.106299 84.175157 223.306299 84.175157 
L 127.152549 84.175157 
Q 125.352549 84.175157 125.352549 85.975157 
L 125.352549 296.440157 
Q 125.352549 298.240157 127.152549 298.240157 
L 127.152549 298.240157 
z
" style="fill: none; opacity: 0.8"/>
    </g>
    <g id="text_17">
     <!-- LGM -->
     <g transform="translate(176.552705 94.613751)scale(0.09 -0.09)">
      <defs>
       <path id="DejaVuSans-4c" d="M 628 4666 
L 1259 4666 
L 1259 531 
L 3531 531 
L 3531 0 
L 628 0 
L 628 4666 
z
" transform="scale(0.015625)"/>
       <path id="DejaVuSans-4d" d="M 628 4666 
L 1569 4666 
L 2759 1491 
L 3956 4666 
L 4897 4666 
L 4897 0 
L 4281 0 
L 4281 4097 
L 3078 897 
L 2444 897 
L 1241 4097 
L 1241 0 
L 628 0 
L 628 4666 
z
" transform="scale(0.015625)"/>
      </defs>
      <use xlink:href="#DejaVuSans-4c"/>
      <use xlink:href="#DejaVuSans-47" x="55.712891"/>
      <use xlink:href="#DejaVuSans-4d" x="133.203125"/>
     </g>
    </g>
    <g id="PathCollection_40">
     <path d="M 208.176172 96.581378 
L 216.836426 96.581378 
L 216.836426 87.921124 
L 208.176172 87.921124 
L 208.176172 96.581378 
z
" style="fill: none; stroke: #0000ff"/>
    </g>
    <g id="text_18">
     <!-- MH -->
     <g transform="translate(181.772705 107.824064)scale(0.09 -0.09)">
      <defs>
       <path id="DejaVuSans-48" d="M 628 4666 
L 1259 4666 
L 1259 2753 
L 3553 2753 
L 3553 4666 
L 4184 4666 
L 4184 0 
L 3553 0 
L 3553 2222 
L 1259 2222 
L 1259 0 
L 628 0 
L 628 4666 
z
" transform="scale(0.015625)"/>
      </defs>
      <use xlink:href="#DejaVuSans-4d"/>
      <use xlink:href="#DejaVuSans-48" x="86.279297"/>
     </g>
    </g>
    <g id="PathCollection_41">
     <path d="M 208.176172 109.791691 
L 216.836426 109.791691 
L 216.836426 101.131437 
L 208.176172 101.131437 
L 208.176172 109.791691 
z
" style="fill: none; stroke: #ffa07a"/>
    </g>
    <g id="text_19">
     <!-- LIG -->
     <g transform="translate(181.663018 121.034376)scale(0.09 -0.09)">
      <defs>
       <path id="DejaVuSans-49" d="M 628 4666 
L 1259 4666 
L 1259 0 
L 628 0 
L 628 4666 
z
" transform="scale(0.015625)"/>
      </defs>
      <use xlink:href="#DejaVuSans-4c"/>
      <use xlink:href="#DejaVuSans-49" x="55.712891"/>
      <use xlink:href="#DejaVuSans-47" x="85.205078"/>
     </g>
    </g>
    <g id="PathCollection_42">
     <path d="M 208.176172 123.002003 
L 216.836426 123.002003 
L 216.836426 114.341749 
L 208.176172 114.341749 
L 208.176172 123.002003 
z
" style="fill: none; stroke: #add8e6"/>
    </g>
    <g id="text_20">
     <!-- mPWP -->
     <g transform="translate(167.787549 134.244689)scale(0.09 -0.09)">
      <defs>
       <path id="DejaVuSans-50" d="M 1259 4147 
L 1259 2394 
L 2053 2394 
Q 2494 2394 2734 2622 
Q 2975 2850 2975 3272 
Q 2975 3691 2734 3919 
Q 2494 4147 2053 4147 
L 1259 4147 
z
M 628 4666 
L 2053 4666 
Q 2838 4666 3239 4311 
Q 3641 3956 3641 3272 
Q 3641 2581 3239 2228 
Q 2838 1875 2053 1875 
L 1259 1875 
L 1259 0 
L 628 0 
L 628 4666 
z
" transform="scale(0.015625)"/>
       <path id="DejaVuSans-57" d="M 213 4666 
L 850 4666 
L 1831 722 
L 2809 4666 
L 3519 4666 
L 4500 722 
L 5478 4666 
L 6119 4666 
L 4947 0 
L 4153 0 
L 3169 4050 
L 2175 0 
L 1381 0 
L 213 4666 
z
" transform="scale(0.015625)"/>
      </defs>
      <use xlink:href="#DejaVuSans-6d"/>
      <use xlink:href="#DejaVuSans-50" x="97.412109"/>
      <use xlink:href="#DejaVuSans-57" x="157.714844"/>
      <use xlink:href="#DejaVuSans-50" x="256.591797"/>
     </g>
    </g>
    <g id="PathCollection_43">
     <path d="M 208.176172 136.212316 
L 216.836426 136.212316 
L 216.836426 127.552062 
L 208.176172 127.552062 
L 208.176172 136.212316 
z
" style="fill: none; stroke: #ff0000"/>
    </g>
    <g id="text_21">
     <!-- EECO -->
     <g transform="translate(171.56333 147.455001)scale(0.09 -0.09)">
      <defs>
       <path id="DejaVuSans-45" d="M 628 4666 
L 3578 4666 
L 3578 4134 
L 1259 4134 
L 1259 2753 
L 3481 2753 
L 3481 2222 
L 1259 2222 
L 1259 531 
L 3634 531 
L 3634 0 
L 628 0 
L 628 4666 
z
" transform="scale(0.015625)"/>
       <path id="DejaVuSans-4f" d="M 2522 4238 
Q 1834 4238 1429 3725 
Q 1025 3213 1025 2328 
Q 1025 1447 1429 934 
Q 1834 422 2522 422 
Q 3209 422 3611 934 
Q 4013 1447 4013 2328 
Q 4013 3213 3611 3725 
Q 3209 4238 2522 4238 
z
M 2522 4750 
Q 3503 4750 4090 4092 
Q 4678 3434 4678 2328 
Q 4678 1225 4090 567 
Q 3503 -91 2522 -91 
Q 1538 -91 948 565 
Q 359 1222 359 2328 
Q 359 3434 948 4092 
Q 1538 4750 2522 4750 
z
" transform="scale(0.015625)"/>
      </defs>
      <use xlink:href="#DejaVuSans-45"/>
      <use xlink:href="#DejaVuSans-45" x="63.183594"/>
      <use xlink:href="#DejaVuSans-43" x="126.367188"/>
      <use xlink:href="#DejaVuSans-4f" x="196.191406"/>
     </g>
    </g>
    <g id="PathCollection_44">
     <path d="M 208.176172 149.422628 
L 216.836426 149.422628 
L 216.836426 140.762374 
L 208.176172 140.762374 
L 208.176172 149.422628 
z
" style="fill: none; stroke: #8b0000"/>
    </g>
    <g id="text_22">
     <!-- 1pctCO2 -->
     <g transform="translate(157.294112 160.665314)scale(0.09 -0.09)">
      <use xlink:href="#DejaVuSans-31"/>
      <use xlink:href="#DejaVuSans-70" x="63.623047"/>
      <use xlink:href="#DejaVuSans-63" x="127.099609"/>
      <use xlink:href="#DejaVuSans-74" x="182.080078"/>
      <use xlink:href="#DejaVuSans-43" x="221.289062"/>
      <use xlink:href="#DejaVuSans-4f" x="291.113281"/>
      <use xlink:href="#DejaVuSans-32" x="369.824219"/>
     </g>
    </g>
    <g id="PathCollection_45">
     <path d="M 208.176172 162.632941 
L 216.836426 162.632941 
L 216.836426 153.972687 
L 208.176172 153.972687 
L 208.176172 162.632941 
z
" style="fill: none; stroke: #32cd32"/>
    </g>
    <g id="text_23">
     <!-- abrupt4xCO2 -->
     <g transform="translate(136.28333 173.875626)scale(0.09 -0.09)">
      <defs>
       <path id="DejaVuSans-34" d="M 2419 4116 
L 825 1625 
L 2419 1625 
L 2419 4116 
z
M 2253 4666 
L 3047 4666 
L 3047 1625 
L 3713 1625 
L 3713 1100 
L 3047 1100 
L 3047 0 
L 2419 0 
L 2419 1100 
L 313 1100 
L 313 1709 
L 2253 4666 
z
" transform="scale(0.015625)"/>
       <path id="DejaVuSans-78" d="M 3513 3500 
L 2247 1797 
L 3578 0 
L 2900 0 
L 1881 1375 
L 863 0 
L 184 0 
L 1544 1831 
L 300 3500 
L 978 3500 
L 1906 2253 
L 2834 3500 
L 3513 3500 
z
" transform="scale(0.015625)"/>
      </defs>
      <use xlink:href="#DejaVuSans-61"/>
      <use xlink:href="#DejaVuSans-62" x="61.279297"/>
      <use xlink:href="#DejaVuSans-72" x="124.755859"/>
      <use xlink:href="#DejaVuSans-75" x="165.869141"/>
      <use xlink:href="#DejaVuSans-70" x="229.248047"/>
      <use xlink:href="#DejaVuSans-74" x="292.724609"/>
      <use xlink:href="#DejaVuSans-34" x="331.933594"/>
      <use xlink:href="#DejaVuSans-78" x="395.556641"/>
      <use xlink:href="#DejaVuSans-43" x="454.736328"/>
      <use xlink:href="#DejaVuSans-4f" x="524.560547"/>
      <use xlink:href="#DejaVuSans-32" x="603.271484"/>
     </g>
    </g>
    <g id="PathCollection_46">
     <path d="M 208.176172 175.843253 
L 216.836426 175.843253 
L 216.836426 167.182999 
L 208.176172 167.182999 
L 208.176172 175.843253 
z
" style="fill: none; stroke: #ee82ee"/>
    </g>
    <g id="text_24">
     <!-- Instrumental -->
     <g transform="translate(138.775205 187.085939)scale(0.09 -0.09)">
      <use xlink:href="#DejaVuSans-49"/>
      <use xlink:href="#DejaVuSans-6e" x="29.492188"/>
      <use xlink:href="#DejaVuSans-73" x="92.871094"/>
      <use xlink:href="#DejaVuSans-74" x="144.970703"/>
      <use xlink:href="#DejaVuSans-72" x="184.179688"/>
      <use xlink:href="#DejaVuSans-75" x="225.292969"/>
      <use xlink:href="#DejaVuSans-6d" x="288.671875"/>
      <use xlink:href="#DejaVuSans-65" x="386.083984"/>
      <use xlink:href="#DejaVuSans-6e" x="447.607422"/>
      <use xlink:href="#DejaVuSans-74" x="510.986328"/>
      <use xlink:href="#DejaVuSans-61" x="550.195312"/>
      <use xlink:href="#DejaVuSans-6c" x="611.474609"/>
     </g>
    </g>
    <g id="PathCollection_47">
     <path d="M 212.506299 190.200664 
L 217.983525 184.723439 
L 212.506299 179.246213 
L 207.029074 184.723439 
L 212.506299 190.200664 
z
" style="fill: none; stroke: #000000"/>
    </g>
    <g id="text_25">
     <!-- Fit to data: -->
     <g transform="translate(147.693643 200.296251)scale(0.09 -0.09)">
      <defs>
       <path id="DejaVuSans-46" d="M 628 4666 
L 3309 4666 
L 3309 4134 
L 1259 4134 
L 1259 2759 
L 3109 2759 
L 3109 2228 
L 1259 2228 
L 1259 0 
L 628 0 
L 628 4666 
z
" transform="scale(0.015625)"/>
       <path id="DejaVuSans-3a" d="M 750 794 
L 1409 794 
L 1409 0 
L 750 0 
L 750 794 
z
M 750 3309 
L 1409 3309 
L 1409 2516 
L 750 2516 
L 750 3309 
z
" transform="scale(0.015625)"/>
      </defs>
      <use xlink:href="#DejaVuSans-46"/>
      <use xlink:href="#DejaVuSans-69" x="50.269531"/>
      <use xlink:href="#DejaVuSans-74" x="78.052734"/>
      <use xlink:href="#DejaVuSans-20" x="117.261719"/>
      <use xlink:href="#DejaVuSans-74" x="149.048828"/>
      <use xlink:href="#DejaVuSans-6f" x="188.257812"/>
      <use xlink:href="#DejaVuSans-20" x="249.439453"/>
      <use xlink:href="#DejaVuSans-64" x="281.226562"/>
      <use xlink:href="#DejaVuSans-61" x="344.703125"/>
      <use xlink:href="#DejaVuSans-74" x="405.982422"/>
      <use xlink:href="#DejaVuSans-61" x="445.191406"/>
      <use xlink:href="#DejaVuSans-3a" x="506.470703"/>
     </g>
    </g>
    <g id="line2d_18">
     <path d="M 203.506299 197.146251 
L 212.506299 197.146251 
L 221.506299 197.146251 
" style="fill: none; stroke: #000000; stroke-width: 1.5; stroke-linecap: square"/>
    </g>
    <g id="text_26">
     <!-- CMIP6 -->
     <g transform="translate(168.448487 213.506564)scale(0.09 -0.09)">
      <defs>
       <path id="DejaVuSans-36" d="M 2113 2584 
Q 1688 2584 1439 2293 
Q 1191 2003 1191 1497 
Q 1191 994 1439 701 
Q 1688 409 2113 409 
Q 2538 409 2786 701 
Q 3034 994 3034 1497 
Q 3034 2003 2786 2293 
Q 2538 2584 2113 2584 
z
M 3366 4563 
L 3366 3988 
Q 3128 4100 2886 4159 
Q 2644 4219 2406 4219 
Q 1781 4219 1451 3797 
Q 1122 3375 1075 2522 
Q 1259 2794 1537 2939 
Q 1816 3084 2150 3084 
Q 2853 3084 3261 2657 
Q 3669 2231 3669 1497 
Q 3669 778 3244 343 
Q 2819 -91 2113 -91 
Q 1303 -91 875 529 
Q 447 1150 447 2328 
Q 447 3434 972 4092 
Q 1497 4750 2381 4750 
Q 2619 4750 2861 4703 
Q 3103 4656 3366 4563 
z
" transform="scale(0.015625)"/>
      </defs>
      <use xlink:href="#DejaVuSans-43"/>
      <use xlink:href="#DejaVuSans-4d" x="69.824219"/>
      <use xlink:href="#DejaVuSans-49" x="156.103516"/>
      <use xlink:href="#DejaVuSans-50" x="185.595703"/>
      <use xlink:href="#DejaVuSans-36" x="245.898438"/>
     </g>
    </g>
    <g id="PathCollection_48">
     <path d="M 212.506299 213.882677 
C 213.232588 213.882677 213.929227 213.594119 214.442791 213.080555 
C 214.956354 212.566992 215.244912 211.870352 215.244912 211.144064 
C 215.244912 210.417775 214.956354 209.721136 214.442791 209.207572 
C 213.929227 208.694008 213.232588 208.405451 212.506299 208.405451 
C 211.780011 208.405451 211.083371 208.694008 210.569808 209.207572 
C 210.056244 209.721136 209.767686 210.417775 209.767686 211.144064 
C 209.767686 211.870352 210.056244 212.566992 210.569808 213.080555 
C 211.083371 213.594119 211.780011 213.882677 212.506299 213.882677 
L 212.506299 213.882677 
z
" style="fill: none; stroke: #000000"/>
    </g>
    <g id="text_27">
     <!-- CMIP5 -->
     <g transform="translate(168.448487 226.716876)scale(0.09 -0.09)">
      <use xlink:href="#DejaVuSans-43"/>
      <use xlink:href="#DejaVuSans-4d" x="69.824219"/>
      <use xlink:href="#DejaVuSans-49" x="156.103516"/>
      <use xlink:href="#DejaVuSans-50" x="185.595703"/>
      <use xlink:href="#DejaVuSans-35" x="245.898438"/>
     </g>
    </g>
    <g id="PathCollection_49">
     <g>
      <use xlink:href="#m713c511d83" x="212.506299" y="224.354376" style="stroke: #000000"/>
     </g>
    </g>
    <g id="text_28">
     <!-- non-CMIP -->
     <g transform="translate(154.01333 239.927189)scale(0.09 -0.09)">
      <defs>
       <path id="DejaVuSans-2d" d="M 313 2009 
L 1997 2009 
L 1997 1497 
L 313 1497 
L 313 2009 
z
" transform="scale(0.015625)"/>
      </defs>
      <use xlink:href="#DejaVuSans-6e"/>
      <use xlink:href="#DejaVuSans-6f" x="63.378906"/>
      <use xlink:href="#DejaVuSans-6e" x="124.560547"/>
      <use xlink:href="#DejaVuSans-2d" x="187.939453"/>
      <use xlink:href="#DejaVuSans-43" x="224.023438"/>
      <use xlink:href="#DejaVuSans-4d" x="293.847656"/>
      <use xlink:href="#DejaVuSans-49" x="380.126953"/>
      <use xlink:href="#DejaVuSans-50" x="409.619141"/>
     </g>
    </g>
    <g id="PathCollection_50">
     <g>
      <use xlink:href="#m38d57f80dd" x="212.506299" y="237.564689" style="stroke: #000000"/>
     </g>
    </g>
    <g id="text_29">
     <!-- CMIP6 -->
     <g transform="translate(168.448487 253.137501)scale(0.09 -0.09)">
      <use xlink:href="#DejaVuSans-43"/>
      <use xlink:href="#DejaVuSans-4d" x="69.824219"/>
      <use xlink:href="#DejaVuSans-49" x="156.103516"/>
      <use xlink:href="#DejaVuSans-50" x="185.595703"/>
      <use xlink:href="#DejaVuSans-36" x="245.898438"/>
     </g>
    </g>
    <g id="PathCollection_51">
     <path d="M 208.176172 255.105128 
L 216.836426 255.105128 
L 216.836426 246.444874 
L 208.176172 246.444874 
L 208.176172 255.105128 
z
" style="fill: none; stroke: #000000"/>
    </g>
    <g id="text_30">
     <!-- CMIP5 -->
     <g transform="translate(168.448487 266.347814)scale(0.09 -0.09)">
      <use xlink:href="#DejaVuSans-43"/>
      <use xlink:href="#DejaVuSans-4d" x="69.824219"/>
      <use xlink:href="#DejaVuSans-49" x="156.103516"/>
      <use xlink:href="#DejaVuSans-50" x="185.595703"/>
      <use xlink:href="#DejaVuSans-35" x="245.898438"/>
     </g>
    </g>
    <g id="PathCollection_52">
     <path d="M 210.341236 268.315441 
L 212.506299 266.150377 
L 214.671363 268.315441 
L 216.836426 266.150377 
L 214.671363 263.985314 
L 216.836426 261.82025 
L 214.671363 259.655187 
L 212.506299 261.82025 
L 210.341236 259.655187 
L 208.176172 261.82025 
L 210.341236 263.985314 
L 208.176172 266.150377 
L 210.341236 268.315441 
z
" style="fill: none; stroke: #000000"/>
    </g>
    <g id="text_31">
     <!-- non-CMIP -->
     <g transform="translate(154.01333 279.558126)scale(0.09 -0.09)">
      <use xlink:href="#DejaVuSans-6e"/>
      <use xlink:href="#DejaVuSans-6f" x="63.378906"/>
      <use xlink:href="#DejaVuSans-6e" x="124.560547"/>
      <use xlink:href="#DejaVuSans-2d" x="187.939453"/>
      <use xlink:href="#DejaVuSans-43" x="224.023438"/>
      <use xlink:href="#DejaVuSans-4d" x="293.847656"/>
      <use xlink:href="#DejaVuSans-49" x="380.126953"/>
      <use xlink:href="#DejaVuSans-50" x="409.619141"/>
     </g>
    </g>
    <g id="PathCollection_53">
     <path d="M 211.062924 281.525753 
L 213.949675 281.525753 
L 213.949675 278.639002 
L 216.836426 278.639002 
L 216.836426 275.752251 
L 213.949675 275.752251 
L 213.949675 272.865499 
L 211.062924 272.865499 
L 211.062924 275.752251 
L 208.176172 275.752251 
L 208.176172 278.639002 
L 211.062924 278.639002 
L 211.062924 281.525753 
z
" style="fill: none; stroke: #000000"/>
    </g>
    <g id="text_32">
     <!-- Reconstruction -->
     <g transform="translate(128.952549 292.768439)scale(0.09 -0.09)">
      <defs>
       <path id="DejaVuSans-52" d="M 2841 2188 
Q 3044 2119 3236 1894 
Q 3428 1669 3622 1275 
L 4263 0 
L 3584 0 
L 2988 1197 
Q 2756 1666 2539 1819 
Q 2322 1972 1947 1972 
L 1259 1972 
L 1259 0 
L 628 0 
L 628 4666 
L 2053 4666 
Q 2853 4666 3247 4331 
Q 3641 3997 3641 3322 
Q 3641 2881 3436 2590 
Q 3231 2300 2841 2188 
z
M 1259 4147 
L 1259 2491 
L 2053 2491 
Q 2509 2491 2742 2702 
Q 2975 2913 2975 3322 
Q 2975 3731 2742 3939 
Q 2509 4147 2053 4147 
L 1259 4147 
z
" transform="scale(0.015625)"/>
      </defs>
      <use xlink:href="#DejaVuSans-52"/>
      <use xlink:href="#DejaVuSans-65" x="64.982422"/>
      <use xlink:href="#DejaVuSans-63" x="126.505859"/>
      <use xlink:href="#DejaVuSans-6f" x="181.486328"/>
      <use xlink:href="#DejaVuSans-6e" x="242.667969"/>
      <use xlink:href="#DejaVuSans-73" x="306.046875"/>
      <use xlink:href="#DejaVuSans-74" x="358.146484"/>
      <use xlink:href="#DejaVuSans-72" x="397.355469"/>
      <use xlink:href="#DejaVuSans-75" x="438.46875"/>
      <use xlink:href="#DejaVuSans-63" x="501.847656"/>
      <use xlink:href="#DejaVuSans-74" x="556.828125"/>
      <use xlink:href="#DejaVuSans-69" x="596.037109"/>
      <use xlink:href="#DejaVuSans-6f" x="623.820312"/>
      <use xlink:href="#DejaVuSans-6e" x="685.001953"/>
     </g>
    </g>
    <g id="LineCollection_3">
     <path d="M 208.006299 289.618439 
L 217.006299 289.618439 
" style="fill: none; stroke: #000000; stroke-width: 1.5"/>
    </g>
    <g id="LineCollection_4">
     <path d="M 212.506299 294.118439 
L 212.506299 285.118439 
" style="fill: none; stroke: #000000; stroke-width: 1.5"/>
    </g>
    <g id="line2d_19"/>
    <g id="line2d_20">
     <g>
      <use xlink:href="#m974e5fd3dd" x="212.506299" y="289.618439" style="fill: #ffa07a; stroke: #ffa07a; stroke-linejoin: bevel"/>
     </g>
    </g>
   </g>
  </g>
 </g>
 <defs>
  <clipPath id="p5cf6c3453b">
   <rect x="31.889764" y="40.818898" width="197.716535" height="261.92126"/>
  </clipPath>
 </defs>
</svg>
